{"glyphs":{"0":{"ha":765,"x_min":94,"x_max":729,"o":"m 729 689 q 702 416 729 555 q 622 180 674 277 q 334 -14 519 -14 q 94 335 94 -14 q 124 593 94 460 q 208 820 155 727 q 498 1007 317 1007 q 729 689 729 1007 m 660 682 q 619 883 660 818 q 489 947 578 947 q 327 871 399 947 q 209 648 254 794 q 164 346 164 501 q 207 118 164 191 q 342 46 250 46 q 506 122 435 46 q 618 350 576 198 q 660 682 660 502 z "},"1":{"ha":765,"x_min":240,"x_max":576,"o":"m 293 0 l 446 715 q 496 914 461 790 q 447 875 468 890 q 275 764 427 859 l 240 817 l 515 991 l 576 991 l 364 0 l 293 0 z "},"2":{"ha":765,"x_min":26,"x_max":725,"o":"m 652 779 q 606 901 652 857 q 473 945 561 945 q 248 857 354 945 l 211 907 q 478 1006 334 1006 q 660 948 595 1006 q 725 787 725 890 q 695 646 725 713 q 600 503 665 578 q 389 297 534 427 l 129 68 l 129 65 l 628 65 l 616 0 l 26 0 l 41 71 l 346 343 q 539 532 481 465 q 625 658 597 599 q 652 779 652 717 z "},"3":{"ha":765,"x_min":37,"x_max":711,"o":"m 478 1006 q 649 949 587 1006 q 711 796 711 893 q 639 609 711 686 q 446 513 567 533 l 446 510 q 571 432 525 494 q 618 276 618 370 q 524 63 618 140 q 277 -14 431 -14 q 267 -14 272 -14 q 37 36 138 -14 l 37 104 q 271 46 155 46 q 476 107 404 46 q 549 278 549 168 q 489 429 549 376 q 321 482 429 482 l 241 482 l 256 547 l 330 547 q 556 612 471 547 q 640 787 640 677 q 597 906 640 865 q 469 947 553 947 q 236 859 357 947 l 203 909 q 478 1006 324 1006 z "},"4":{"ha":765,"x_min":16,"x_max":741,"o":"m 547 252 l 493 0 l 428 0 l 482 252 l 16 252 l 29 317 l 627 1002 l 707 1002 l 561 311 l 741 311 l 726 252 l 547 252 m 102 311 l 494 311 q 580 713 556 599 q 633 930 604 827 l 631 930 q 543 818 588 871 l 102 311 z "},"5":{"ha":765,"x_min":60,"x_max":729,"o":"m 395 596 q 593 527 522 596 q 664 338 664 458 q 564 81 664 177 q 288 -14 463 -14 q 168 0 233 -14 q 60 35 103 14 l 60 107 q 290 46 174 46 q 513 124 431 46 q 595 336 595 201 q 537 485 595 431 q 387 539 479 539 q 220 511 295 539 l 175 545 l 306 991 l 729 991 l 717 926 l 350 926 l 249 576 q 395 596 316 596 z "},"6":{"ha":765,"x_min":115,"x_max":753,"o":"m 460 616 q 630 548 569 616 q 690 357 690 480 q 690 350 690 353 q 599 91 690 195 q 367 -14 508 -14 q 359 -14 363 -14 q 179 67 243 -14 q 115 290 115 147 q 186 659 115 482 q 629 1004 325 1004 q 753 990 713 1004 l 741 929 q 625 945 682 945 q 358 827 467 945 q 200 486 250 709 l 205 486 q 460 616 300 616 m 373 46 q 502 86 444 46 q 590 196 559 126 q 621 348 621 265 q 621 351 621 349 q 575 504 621 451 q 443 557 530 557 q 251 476 332 557 q 198 399 213 438 q 183 281 183 359 q 232 108 183 170 q 368 46 281 46 q 373 46 371 46 z "},"7":{"ha":765,"x_min":165,"x_max":783,"o":"m 705 926 l 186 926 l 201 991 l 783 991 l 770 917 l 241 0 l 165 0 l 705 926 z "},"8":{"ha":765,"x_min":66,"x_max":739,"o":"m 225 755 q 302 935 225 863 q 495 1007 379 1007 q 675 949 611 1007 q 739 796 739 891 q 683 636 739 701 q 489 518 626 570 q 617 403 576 465 q 659 261 659 340 q 570 63 659 140 q 330 -14 482 -14 q 138 49 210 -14 q 66 220 66 112 q 135 403 66 329 q 353 530 203 477 q 255 633 286 578 q 225 755 225 687 m 673 784 q 673 823 673 784 q 626 906 673 863 q 491 949 578 949 q 347 893 405 949 q 290 755 290 837 q 319 647 290 694 q 425 551 347 601 q 614 649 555 593 q 673 784 673 705 m 201 383 q 136 229 136 319 q 189 91 136 139 q 338 43 241 43 q 521 105 452 43 q 590 262 590 167 q 547 391 590 334 q 414 497 505 449 q 201 383 266 447 z "},"9":{"ha":765,"x_min":78,"x_max":718,"o":"m 379 370 q 206 441 269 370 q 143 633 143 512 q 183 824 143 738 q 299 957 224 910 q 473 1004 375 1004 q 655 926 591 1004 q 718 700 718 848 q 649 329 718 505 q 471 70 581 153 q 204 -14 362 -14 q 78 1 125 -14 l 78 62 q 208 43 138 43 q 633 500 530 43 l 628 500 q 379 370 533 370 m 458 945 q 281 859 351 945 q 212 646 212 772 q 212 639 212 642 q 258 486 212 541 q 389 432 304 432 q 495 454 444 432 q 582 513 545 475 q 634 590 619 550 q 650 710 650 629 q 602 884 650 823 q 465 945 553 945 q 458 945 462 945 z "}," ":{"ha":361,"x_min":0,"x_max":0,"o":""},"!":{"ha":340,"x_min":54,"x_max":345,"o":"m 126 256 l 264 991 l 345 991 l 168 256 l 126 256 m 54 39 q 71 99 54 77 q 118 121 88 121 q 163 72 163 121 q 145 12 163 35 q 100 -11 128 -11 q 54 39 54 -11 z "},"\"":{"ha":489,"x_min":168,"x_max":532,"o":"m 210 633 l 168 633 l 222 991 l 309 991 l 210 633 m 433 633 l 392 633 l 446 991 l 532 991 l 433 633 z "},"#":{"ha":897,"x_min":56,"x_max":918,"o":"m 345 629 l 143 629 l 149 684 l 359 684 l 450 991 l 511 991 l 419 684 l 667 684 l 758 991 l 817 991 l 725 684 l 918 684 l 913 629 l 708 629 l 628 359 l 833 359 l 828 306 l 611 306 l 521 0 l 460 0 l 551 306 l 307 306 l 216 0 l 157 0 l 248 306 l 56 306 l 61 359 l 264 359 l 345 629 m 568 359 l 650 629 l 404 629 l 322 359 l 568 359 z "},"$":{"ha":765,"x_min":96,"x_max":717,"o":"m 629 317 q 554 152 629 214 q 353 82 479 89 l 317 -81 l 261 -81 l 296 82 q 96 123 177 85 l 96 187 q 199 151 140 164 q 309 138 258 138 l 383 485 q 279 547 311 519 q 218 685 218 602 q 290 855 218 791 q 475 922 361 919 l 503 1053 l 557 1053 l 529 922 q 717 876 629 920 l 693 823 q 519 871 620 865 l 446 522 q 562 454 530 481 q 629 317 629 401 m 278 690 q 303 603 278 637 q 396 538 329 569 l 465 871 q 327 817 375 865 q 278 690 278 769 m 571 313 q 538 400 571 364 q 432 467 506 437 l 364 138 q 516 188 461 142 q 571 313 571 234 z "},"%":{"ha":1055,"x_min":98,"x_max":1031,"o":"m 515 812 q 481 591 515 694 q 390 435 448 488 q 256 382 332 382 q 139 433 180 382 q 98 590 98 485 q 133 797 98 694 q 226 951 168 899 q 358 1004 284 1004 q 515 812 515 1004 m 216 0 l 144 0 l 914 991 l 989 991 l 216 0 m 457 796 q 457 839 457 796 q 432 918 457 882 q 355 954 408 954 q 257 906 302 954 q 184 768 212 857 q 157 595 157 678 q 184 472 157 512 q 264 432 212 432 q 362 481 317 432 q 432 621 406 531 q 457 796 457 710 m 1031 415 q 997 194 1031 297 q 905 38 963 91 q 771 -16 847 -16 q 654 36 695 -16 q 614 192 614 87 q 649 399 614 297 q 742 554 684 501 q 877 607 800 607 q 1031 415 1031 607 m 972 410 q 948 520 972 484 q 870 557 923 557 q 772 508 817 557 q 700 371 727 459 q 672 199 672 283 q 700 75 672 115 q 777 35 727 35 q 919 148 865 35 q 972 410 972 261 z "},"&":{"ha":903,"x_min":53,"x_max":886,"o":"m 301 -14 q 120 50 188 -14 q 53 222 53 114 q 120 408 53 330 q 340 554 187 486 l 313 600 q 260 770 260 686 q 328 942 260 876 q 507 1007 396 1007 q 661 955 605 1007 q 717 815 717 903 q 607 624 717 704 q 433 530 554 585 l 657 216 q 749 336 707 267 q 811 463 792 406 l 886 463 q 693 167 817 295 l 818 0 l 734 0 l 646 125 q 481 19 563 51 q 301 -14 399 -14 m 507 946 q 376 900 422 946 q 329 767 329 854 q 403 579 329 680 q 592 690 539 639 q 644 814 644 741 q 606 910 644 875 q 507 946 568 946 m 119 222 q 172 93 119 142 q 315 43 224 43 q 459 72 389 43 q 610 171 530 101 l 371 505 q 214 414 258 450 q 119 222 119 338 z "},"'":{"ha":273,"x_min":172,"x_max":313,"o":"m 214 633 l 172 633 l 227 991 l 313 991 l 214 633 z "},"(":{"ha":357,"x_min":71,"x_max":484,"o":"m 170 -220 q 71 187 71 -41 q 153 612 71 415 q 412 991 235 808 l 484 991 q 223 606 308 804 q 138 190 138 408 q 224 -220 138 -28 l 170 -220 z "},")":{"ha":357,"x_min":-106,"x_max":307,"o":"m 208 991 q 307 584 307 813 q 224 158 307 354 q -35 -220 140 -39 l -106 -220 q 155 165 69 -34 q 240 579 240 363 q 154 991 240 794 l 208 991 z "},"*":{"ha":771,"x_min":158,"x_max":789,"o":"m 492 770 l 789 775 l 783 703 l 501 722 l 624 450 l 546 425 l 454 708 l 261 472 l 208 525 l 424 741 l 158 825 l 184 895 l 452 781 l 484 1057 l 566 1044 l 492 770 z "},"+":{"ha":765,"x_min":110,"x_max":722,"o":"m 110 456 l 110 524 l 382 524 l 382 798 l 450 798 l 450 524 l 722 524 l 722 456 l 450 456 l 450 184 l 382 184 l 382 456 l 110 456 z "},",":{"ha":306,"x_min":-61,"x_max":175,"o":"m 170 161 l 175 146 q 98 -12 151 83 q -11 -179 45 -106 l -61 -179 q 36 7 -7 -89 q 94 161 78 104 l 170 161 z "},"-":{"ha":427,"x_min":56,"x_max":378,"o":"m 68 401 l 378 401 l 367 340 l 56 340 l 68 401 z "},".":{"ha":329,"x_min":56,"x_max":164,"o":"m 56 37 q 73 97 56 75 q 119 119 90 119 q 164 71 164 119 q 147 11 164 34 q 102 -12 130 -12 q 56 37 56 -12 z "},"/":{"ha":435,"x_min":-68,"x_max":561,"o":"m 7 0 l -68 0 l 485 991 l 561 991 l 7 0 z "},":":{"ha":329,"x_min":69,"x_max":285,"o":"m 176 671 q 194 731 176 709 q 240 753 211 753 q 285 704 285 753 q 268 644 285 667 q 222 621 251 621 q 176 671 176 621 m 69 37 q 86 97 69 75 q 134 119 104 119 q 178 71 178 119 q 160 11 178 33 q 115 -12 143 -12 q 69 37 69 -12 z "},";":{"ha":329,"x_min":-36,"x_max":289,"o":"m 180 671 q 198 731 180 709 q 244 753 215 753 q 289 704 289 753 q 272 644 289 667 q 227 621 255 621 q 180 671 180 621 m 195 161 l 200 146 q 120 -18 177 81 q 14 -179 64 -117 l -36 -179 q 61 7 18 -89 q 119 161 103 104 l 195 161 z "},"<":{"ha":765,"x_min":93,"x_max":713,"o":"m 93 458 l 93 509 l 713 828 l 713 758 l 170 488 l 713 250 l 713 178 l 93 458 z "},"=":{"ha":765,"x_min":114,"x_max":726,"o":"m 114 668 l 726 668 l 726 600 l 114 600 l 114 668 m 114 379 l 726 379 l 726 313 l 114 313 l 114 379 z "},">":{"ha":765,"x_min":115,"x_max":736,"o":"m 659 488 l 115 758 l 115 828 l 736 509 l 736 458 l 115 178 l 115 250 l 659 488 z "},"?":{"ha":542,"x_min":115,"x_max":599,"o":"m 528 786 q 482 901 528 859 q 358 943 436 943 q 150 875 264 943 l 123 933 q 362 1006 250 1006 q 537 948 475 1006 q 599 799 599 891 q 554 634 599 707 q 397 481 509 561 q 307 407 340 439 q 258 343 275 374 q 227 245 241 312 l 164 245 l 168 265 q 224 405 187 354 q 334 508 258 454 q 449 604 410 562 q 528 786 528 690 m 115 40 q 132 100 115 78 q 179 122 149 122 q 224 74 224 122 q 207 14 224 37 q 161 -9 190 -9 q 115 40 115 -9 z "},"@":{"ha":1169,"x_min":85,"x_max":1145,"o":"m 542 -125 q 357 -93 441 -125 q 117 149 183 -26 q 85 336 85 234 q 85 345 85 340 q 167 679 85 532 q 396 908 250 827 q 717 989 542 989 q 941 939 846 989 q 1090 795 1036 891 q 1145 581 1145 700 q 1107 363 1145 462 q 1002 209 1069 264 q 864 153 936 153 q 754 190 793 153 q 715 288 715 227 l 713 288 q 623 188 676 222 q 509 153 570 153 q 388 202 433 153 q 343 339 343 252 q 343 348 343 343 q 438 608 343 501 q 677 714 534 714 q 684 714 680 714 q 854 679 767 714 l 798 465 q 771 318 771 370 q 795 239 771 267 q 863 212 819 212 q 971 262 922 212 q 1051 397 1021 312 q 1080 567 1080 481 q 1080 571 1080 569 q 982 828 1080 729 q 718 928 883 928 q 711 928 715 928 q 424 854 552 928 q 223 648 295 781 q 151 350 151 516 q 256 45 151 155 q 551 -64 361 -64 q 836 -8 692 -64 l 836 -69 q 546 -125 694 -125 q 542 -125 544 -125 m 679 657 q 545 617 606 657 q 448 506 483 577 q 414 350 414 434 q 414 343 414 347 q 441 247 414 281 q 518 212 469 212 q 641 273 587 212 q 725 446 694 334 l 778 642 q 684 657 732 657 q 679 657 681 657 z "},"A":{"ha":718,"x_min":-75,"x_max":664,"o":"m 199 353 l 4 0 l -75 0 l 482 996 l 528 996 l 664 0 l 593 0 l 546 353 l 199 353 m 538 415 l 511 612 q 485 885 490 776 q 447 809 471 857 q 233 415 422 762 l 538 415 z "},"B":{"ha":815,"x_min":69,"x_max":802,"o":"m 536 991 q 733 935 665 991 q 802 773 802 878 q 741 603 802 668 q 568 518 680 537 l 568 515 q 696 439 652 495 q 739 300 739 384 q 644 80 739 160 q 379 0 549 0 l 69 0 l 279 991 l 536 991 m 444 550 q 656 605 584 550 q 729 766 729 660 q 676 889 729 847 q 521 930 623 930 l 336 930 l 256 550 l 444 550 m 383 61 q 593 121 520 61 q 667 294 667 180 q 606 441 667 393 q 419 489 545 489 l 243 489 l 151 61 l 383 61 z "},"C":{"ha":793,"x_min":115,"x_max":860,"o":"m 652 942 q 414 872 518 942 q 248 665 310 802 q 186 371 186 529 q 261 131 186 213 q 476 49 336 49 q 682 83 572 49 l 682 20 q 468 -14 578 -14 q 206 85 296 -14 q 115 363 115 184 q 186 694 115 543 q 379 925 257 845 q 652 1006 502 1006 q 860 960 771 1006 l 829 899 q 652 942 750 942 z "},"D":{"ha":916,"x_min":69,"x_max":873,"o":"m 486 991 q 775 891 677 991 q 873 596 873 791 q 800 284 873 425 q 596 72 726 143 q 293 0 467 0 l 69 0 l 279 991 l 486 991 m 292 61 q 560 125 446 61 q 736 312 674 189 q 799 591 799 435 q 476 929 799 929 l 336 929 l 150 61 l 292 61 z "},"E":{"ha":724,"x_min":69,"x_max":772,"o":"m 69 0 l 279 991 l 772 991 l 758 928 l 335 928 l 256 553 l 656 553 l 642 489 l 243 489 l 151 64 l 576 64 l 562 0 l 69 0 z "},"F":{"ha":665,"x_min":69,"x_max":760,"o":"m 69 0 l 279 991 l 760 991 l 746 928 l 336 928 l 245 507 l 632 507 l 618 443 l 232 443 l 139 0 l 69 0 z "},"G":{"ha":932,"x_min":115,"x_max":909,"o":"m 479 -14 q 210 85 305 -14 q 115 368 115 184 q 186 699 115 551 q 378 926 258 847 q 647 1006 499 1006 q 787 992 725 1006 q 909 953 848 979 l 884 889 q 758 930 813 919 q 642 942 703 942 q 412 869 517 942 q 246 664 307 796 q 186 374 186 532 q 263 132 186 216 q 485 49 341 49 q 694 81 589 49 l 774 437 l 568 437 l 581 498 l 856 498 l 754 36 q 479 -14 612 -14 z "},"H":{"ha":926,"x_min":69,"x_max":930,"o":"m 653 0 l 755 488 l 240 488 l 139 0 l 69 0 l 279 991 l 349 991 l 254 551 l 770 551 l 863 991 l 930 991 l 721 0 l 653 0 z "},"I":{"ha":342,"x_min":69,"x_max":346,"o":"m 279 991 l 346 991 l 136 0 l 69 0 l 279 991 z "},"J":{"ha":323,"x_min":-220,"x_max":339,"o":"m -122 -244 q -220 -228 -189 -244 l -212 -165 q -119 -179 -173 -179 q 58 -16 25 -179 l 268 991 l 339 991 l 126 -20 q 41 -190 102 -135 q -122 -244 -20 -244 z "},"K":{"ha":761,"x_min":69,"x_max":886,"o":"m 589 0 l 357 534 l 228 431 l 139 0 l 69 0 l 279 991 l 349 991 l 241 501 l 332 583 l 793 991 l 886 991 l 412 578 l 664 0 l 589 0 z "},"L":{"ha":636,"x_min":69,"x_max":574,"o":"m 279 991 l 349 991 l 153 65 l 574 65 l 558 0 l 69 0 l 279 991 z "},"M":{"ha":1132,"x_min":74,"x_max":1122,"o":"m 1021 991 l 1122 991 l 918 0 l 850 0 l 979 611 q 1047 914 1035 867 l 1043 914 l 514 0 l 479 0 l 329 914 l 325 914 q 272 625 312 810 l 139 0 l 74 0 l 283 991 l 380 991 l 519 139 l 524 139 l 1021 991 z "},"N":{"ha":930,"x_min":69,"x_max":935,"o":"m 667 0 l 317 871 l 311 871 q 274 666 296 770 q 134 0 253 561 l 69 0 l 279 991 l 334 991 l 688 114 l 693 114 q 743 396 708 230 l 871 991 l 935 991 l 725 0 l 667 0 z "},"O":{"ha":993,"x_min":117,"x_max":951,"o":"m 606 1006 q 862 905 773 1006 q 951 624 951 804 q 888 292 951 444 q 718 63 825 140 q 469 -14 611 -14 q 208 87 300 -14 q 117 373 117 189 q 180 703 117 557 q 353 927 243 849 q 606 1006 463 1006 m 596 942 q 387 873 479 942 q 241 671 296 805 q 187 389 187 537 q 261 136 187 222 q 478 49 336 49 q 682 115 593 49 q 824 319 770 182 q 878 615 878 455 q 807 858 878 774 q 596 942 736 942 z "},"P":{"ha":777,"x_min":69,"x_max":777,"o":"m 493 991 q 703 929 630 991 q 777 747 777 866 q 363 408 777 408 l 227 408 l 139 0 l 69 0 l 279 991 l 493 991 m 367 471 q 621 536 538 471 q 703 743 703 602 q 479 929 703 929 l 336 929 l 237 471 l 367 471 z "},"Q":{"ha":993,"x_min":117,"x_max":951,"o":"m 469 -14 q 208 87 300 -14 q 117 373 117 189 q 180 703 117 557 q 353 927 243 849 q 606 1006 463 1006 q 862 905 773 1006 q 951 618 951 804 q 904 334 951 471 q 591 1 810 64 l 772 -236 l 676 -236 l 519 -11 l 469 -14 m 596 942 q 387 873 479 942 q 241 671 296 805 q 187 389 187 537 q 261 136 187 222 q 478 49 336 49 q 682 115 593 49 q 824 319 770 182 q 878 615 878 455 q 807 858 878 774 q 596 942 736 942 z "},"R":{"ha":777,"x_min":69,"x_max":777,"o":"m 485 991 q 777 747 777 991 q 706 542 777 625 q 515 439 636 460 q 665 0 645 58 l 590 0 l 447 429 l 228 429 l 139 0 l 69 0 l 279 991 l 485 991 m 414 492 q 629 557 555 492 q 703 747 703 622 q 479 929 703 929 l 336 929 l 243 492 l 414 492 z "},"S":{"ha":692,"x_min":25,"x_max":703,"o":"m 467 947 q 291 891 357 947 q 225 743 225 836 q 258 628 225 673 q 382 538 292 583 q 526 450 488 484 q 607 273 607 381 q 562 121 607 188 q 258 -14 473 -14 q 25 37 132 -14 l 25 111 q 262 49 136 49 q 461 107 389 49 q 534 265 534 166 q 513 355 534 324 q 498 378 505 369 q 475 400 491 388 q 450 420 460 412 q 417 441 439 427 q 380 462 394 454 q 336 486 366 470 q 194 597 234 538 q 154 737 154 658 q 154 742 154 740 q 194 878 154 817 q 306 972 235 939 q 463 1006 377 1006 q 467 1006 465 1006 q 589 994 534 1006 q 703 953 644 981 l 681 889 q 577 932 636 916 q 467 947 519 947 z "},"T":{"ha":668,"x_min":131,"x_max":804,"o":"m 228 0 l 424 928 l 131 928 l 144 991 l 804 991 l 791 928 l 493 928 l 297 0 l 228 0 z "},"U":{"ha":929,"x_min":119,"x_max":946,"o":"m 418 -14 q 119 258 119 -14 q 138 395 119 315 l 264 991 l 334 991 l 203 382 q 189 257 189 320 q 421 47 189 47 q 630 113 553 47 q 737 329 706 179 l 878 991 l 946 991 l 806 329 q 672 66 766 146 q 418 -14 578 -14 z "},"V":{"ha":732,"x_min":136,"x_max":861,"o":"m 307 100 l 310 100 q 394 267 345 177 l 782 991 l 861 991 l 319 0 l 260 0 l 136 991 l 204 991 l 283 347 q 307 100 302 193 z "},"W":{"ha":1154,"x_min":161,"x_max":1255,"o":"m 696 909 l 690 909 q 651 812 674 863 q 267 0 628 760 l 211 0 l 161 991 l 229 991 l 261 292 l 264 180 l 262 122 l 267 122 q 382 392 326 279 l 676 991 l 747 991 l 789 396 q 802 118 802 220 l 806 118 q 846 227 829 186 q 1182 991 863 269 l 1255 991 q 1026 483 1174 816 q 808 0 878 151 l 755 0 l 703 729 q 696 849 696 824 q 696 878 696 873 l 696 909 z "},"X":{"ha":659,"x_min":-92,"x_max":779,"o":"m 524 0 l 351 460 l -5 0 l -92 0 l 321 519 l 136 991 l 208 991 l 371 567 l 699 991 l 779 991 l 403 504 l 596 0 l 524 0 z "},"Y":{"ha":654,"x_min":131,"x_max":783,"o":"m 704 991 l 783 991 l 355 359 l 282 0 l 211 0 l 292 370 l 131 991 l 199 991 l 335 437 l 704 991 z "},"Z":{"ha":765,"x_min":-8,"x_max":831,"o":"m -8 0 l 7 62 l 732 928 l 214 928 l 229 991 l 831 991 l 818 932 l 93 64 l 635 64 l 619 0 l -8 0 z "},"[":{"ha":364,"x_min":-39,"x_max":507,"o":"m -39 -220 l 216 991 l 507 991 l 494 930 l 271 930 l 40 -158 l 264 -158 l 250 -220 l -39 -220 z "},"\\":{"ha":435,"x_min":142,"x_max":364,"o":"m 364 0 l 309 0 l 142 991 l 200 991 l 364 0 z "},"]":{"ha":364,"x_min":-119,"x_max":427,"o":"m 427 991 l 171 -220 l -119 -220 l -107 -158 l 117 -158 l 347 930 l 123 930 l 138 991 l 427 991 z "},"^":{"ha":710,"x_min":47,"x_max":684,"o":"m 446 1000 l 507 1000 l 684 386 l 612 386 l 465 935 l 126 386 l 47 386 l 446 1000 z "},"_":{"ha":543,"x_min":-123,"x_max":436,"o":"m -123 -197 l -111 -139 l 436 -139 l 424 -197 l -123 -197 z "},"`":{"ha":770,"x_min":330,"x_max":519,"o":"m 519 842 l 475 842 q 397 940 441 878 q 330 1050 353 1003 l 330 1064 l 408 1064 q 519 859 441 975 l 519 842 z "},"a":{"ha":768,"x_min":69,"x_max":732,"o":"m 260 -14 q 69 240 69 -14 q 120 495 69 374 q 256 682 171 616 q 444 749 342 749 q 633 600 602 749 l 637 600 l 677 737 l 732 737 l 576 0 l 521 0 l 551 186 l 547 186 q 418 37 488 87 q 260 -14 349 -14 m 139 248 q 271 47 139 47 q 395 89 335 47 q 503 201 454 131 q 576 357 551 272 q 602 503 602 442 q 561 638 602 586 q 441 690 520 690 q 294 635 361 690 q 183 469 227 580 q 139 248 139 358 z "},"b":{"ha":781,"x_min":52,"x_max":714,"o":"m 524 751 q 714 497 714 751 q 663 239 714 359 q 527 55 612 120 q 339 -11 441 -11 q 213 29 262 -11 q 147 142 163 68 l 143 142 l 106 0 l 52 0 l 273 1055 l 338 1055 q 228 546 250 631 l 232 546 q 366 701 294 651 q 524 751 438 751 m 644 486 q 644 540 644 486 q 611 642 644 593 q 513 690 578 690 q 387 649 448 690 q 277 534 327 608 q 205 373 229 458 q 182 235 182 287 q 225 97 182 146 q 338 47 269 47 q 489 103 421 47 q 601 269 557 159 q 644 486 644 379 z "},"c":{"ha":602,"x_min":69,"x_max":614,"o":"m 509 25 q 318 -14 430 -14 q 137 61 205 -14 q 69 268 69 136 q 119 515 69 401 q 254 689 169 629 q 450 749 338 749 q 614 720 543 749 l 595 659 q 440 690 522 690 q 289 638 359 690 q 179 487 218 586 q 139 276 139 388 q 189 105 139 163 q 331 47 239 47 q 509 87 422 47 l 509 25 z "},"d":{"ha":768,"x_min":69,"x_max":800,"o":"m 260 -14 q 69 240 69 -14 q 117 491 69 370 q 252 680 166 612 q 444 749 337 749 q 633 600 600 749 l 636 600 q 733 1055 643 637 l 800 1055 l 576 0 l 521 0 l 551 186 l 547 186 q 260 -14 430 -14 m 275 47 q 396 90 336 47 q 505 204 456 132 q 577 361 553 277 q 602 503 602 446 q 560 639 602 587 q 440 690 518 690 q 294 635 362 690 q 183 471 227 579 q 139 248 139 362 q 275 47 139 47 z "},"e":{"ha":629,"x_min":69,"x_max":606,"o":"m 521 33 q 313 -14 426 -14 q 135 60 201 -14 q 69 262 69 134 q 117 503 69 389 q 250 682 165 616 q 436 749 334 749 q 560 707 514 749 q 606 595 606 665 q 494 407 606 471 q 165 343 382 343 l 143 343 q 139 277 139 314 q 189 106 139 165 q 332 47 239 47 q 521 97 424 47 l 521 33 m 186 403 q 536 586 536 403 q 507 661 536 632 q 428 690 477 690 q 262 612 339 690 q 153 403 186 533 l 186 403 z "},"f":{"ha":392,"x_min":-158,"x_max":597,"o":"m -89 -334 q -158 -321 -122 -334 l -158 -260 q -90 -271 -123 -271 q 1 -235 -31 -271 q 52 -109 33 -199 l 218 682 l 79 682 l 89 728 l 228 737 l 252 846 q 331 1011 275 960 q 485 1063 386 1063 q 597 1042 535 1063 l 581 987 q 481 1006 522 1006 q 376 969 415 1006 q 319 848 338 932 l 296 737 l 464 737 l 453 682 l 285 682 l 114 -125 q 43 -284 92 -234 q -89 -334 -5 -334 z "},"g":{"ha":705,"x_min":-60,"x_max":746,"o":"m 611 542 q 574 402 611 467 q 475 304 538 337 q 329 271 412 271 q 277 277 286 271 q 192 227 222 254 q 163 172 163 200 q 185 128 163 144 q 261 107 207 113 l 343 100 q 578 -79 578 79 q 480 -264 579 -195 q 216 -334 381 -334 q 210 -334 213 -334 q 12 -285 84 -334 q -60 -147 -60 -236 q 150 79 -60 13 q 97 163 97 108 q 227 300 97 245 q 152 371 178 324 q 125 478 125 418 q 125 486 125 482 q 161 617 125 555 q 261 715 197 680 q 396 751 325 751 q 401 751 399 751 q 501 737 448 751 l 746 737 l 734 684 l 570 676 q 599 619 587 657 q 611 542 611 581 m 193 487 q 193 447 193 487 q 233 367 193 407 q 338 328 272 328 q 518 430 470 328 q 543 548 543 481 q 505 654 543 615 q 399 693 467 693 q 391 693 395 693 q 250 630 307 693 q 193 487 193 568 m 210 52 q 57 -25 105 22 q 9 -140 9 -72 q 63 -241 9 -208 q 216 -275 117 -275 q 431 -225 354 -275 q 509 -86 509 -175 q 466 2 509 -28 q 318 41 425 33 l 210 52 z "},"h":{"ha":775,"x_min":52,"x_max":701,"o":"m 619 469 q 633 581 633 532 q 603 661 633 631 q 513 690 573 690 q 370 645 436 690 q 187 323 238 555 l 118 0 l 52 0 l 277 1055 l 342 1055 l 283 777 q 239 587 254 642 l 243 587 q 369 706 296 664 q 526 749 443 749 q 655 705 609 749 q 701 581 701 661 q 685 457 701 533 l 585 0 l 518 0 l 619 469 z "},"i":{"ha":322,"x_min":52,"x_max":332,"o":"m 237 926 q 252 986 237 964 q 293 1008 267 1008 q 332 960 332 1008 q 317 899 332 922 q 278 876 302 876 q 237 926 237 876 m 52 0 l 208 737 l 273 737 l 118 0 l 52 0 z "},"j":{"ha":322,"x_min":-189,"x_max":332,"o":"m 237 926 q 252 986 237 964 q 293 1008 267 1008 q 332 960 332 1008 q 317 899 332 922 q 278 876 302 876 q 237 926 237 876 m -113 -334 q -189 -321 -155 -334 l -189 -258 q -107 -273 -159 -273 q -25 -238 -56 -273 q 24 -118 7 -203 l 204 737 l 269 737 l 87 -125 q 16 -284 64 -235 q -113 -334 -32 -334 z "},"k":{"ha":640,"x_min":52,"x_max":681,"o":"m 596 737 l 681 737 l 359 419 l 561 0 l 489 0 l 310 379 l 171 252 l 117 0 l 52 0 l 275 1055 l 340 1055 l 228 526 l 180 323 l 183 323 l 596 737 z "},"l":{"ha":322,"x_min":52,"x_max":342,"o":"m 52 0 l 278 1055 l 342 1055 l 115 0 l 52 0 z "},"m":{"ha":1187,"x_min":49,"x_max":1105,"o":"m 599 567 q 494 690 599 690 q 359 644 423 690 q 183 322 233 554 l 115 0 l 49 0 l 205 737 l 260 737 l 237 595 l 241 595 q 364 710 295 671 q 507 749 433 749 q 619 703 581 749 q 660 571 658 658 l 664 571 q 786 703 716 658 q 937 749 857 749 q 1061 707 1017 749 q 1105 587 1105 665 q 1104 552 1105 568 q 1090 468 1103 535 l 987 0 l 920 0 l 1021 461 q 1038 587 1038 541 q 1008 662 1038 633 q 928 690 979 690 q 740 597 822 690 q 625 351 658 505 l 551 0 l 482 0 l 582 457 q 599 567 599 540 z "},"n":{"ha":775,"x_min":52,"x_max":701,"o":"m 619 469 q 633 581 633 532 q 603 661 633 631 q 513 690 573 690 q 370 645 436 690 q 187 323 237 555 l 118 0 l 52 0 l 208 737 l 264 737 l 239 587 l 243 587 q 525 749 353 749 q 657 706 612 749 q 701 581 701 663 q 685 457 701 533 l 585 0 l 518 0 l 619 469 z "},"o":{"ha":762,"x_min":66,"x_max":696,"o":"m 440 751 q 629 677 563 751 q 696 473 696 604 q 647 225 696 342 q 515 47 599 109 q 321 -14 431 -14 q 132 60 197 -14 q 66 269 66 134 q 116 517 66 404 q 250 690 165 629 q 440 751 334 751 m 627 468 q 627 524 627 468 q 577 637 627 581 q 439 693 528 693 q 283 640 350 693 q 176 487 216 586 q 136 277 136 387 q 328 45 136 45 q 480 97 414 45 q 587 252 547 149 q 627 468 627 355 z "},"p":{"ha":779,"x_min":-22,"x_max":713,"o":"m 522 751 q 664 688 615 751 q 713 494 713 624 q 664 245 713 365 q 530 57 614 125 q 338 -11 445 -11 q 149 138 182 -11 l 146 138 q 45 -334 132 65 l -22 -334 l 205 737 l 261 737 l 231 551 l 235 551 q 522 751 353 751 m 507 690 q 389 651 448 690 q 279 536 330 611 q 204 375 229 462 q 180 235 180 289 q 222 99 180 150 q 342 47 263 47 q 489 105 420 47 q 600 270 557 162 q 643 490 643 378 q 507 690 643 690 z "},"q":{"ha":785,"x_min":66,"x_max":729,"o":"m 257 -14 q 66 240 66 -14 q 118 497 66 376 q 253 683 169 618 q 441 749 338 749 q 566 709 516 749 q 633 596 616 669 l 637 596 l 675 737 l 729 737 l 507 -318 l 443 -318 l 509 1 l 553 192 l 549 192 q 414 37 486 87 q 257 -14 342 -14 m 136 253 q 136 200 136 253 q 168 97 136 147 q 267 47 200 47 q 395 90 334 47 q 504 207 456 132 q 575 367 552 281 q 599 503 599 454 q 556 641 599 591 q 443 690 513 690 q 292 635 359 690 q 180 469 224 579 q 136 253 136 359 z "},"r":{"ha":510,"x_min":49,"x_max":567,"o":"m 484 750 q 567 741 529 750 l 553 677 q 476 688 522 688 q 355 644 412 688 q 251 513 297 601 q 183 326 204 426 l 115 0 l 49 0 l 205 737 l 260 737 l 240 599 l 244 599 q 328 690 294 663 q 484 750 399 750 z "},"s":{"ha":561,"x_min":17,"x_max":554,"o":"m 530 646 q 356 689 439 689 q 225 653 273 689 q 178 559 178 618 q 189 500 178 523 q 311 401 212 455 q 420 331 389 359 q 484 200 484 279 q 414 44 484 102 q 225 -14 344 -14 q 17 37 106 -14 l 17 110 q 218 45 123 45 q 364 84 314 45 q 414 195 414 123 q 403 245 414 224 q 369 287 393 267 q 279 345 345 307 q 145 442 181 397 q 109 551 109 487 q 175 693 109 638 q 351 749 241 749 q 458 737 402 749 q 554 705 513 726 l 530 646 z "},"t":{"ha":418,"x_min":77,"x_max":471,"o":"m 160 140 q 245 46 160 46 q 349 64 290 46 l 349 5 q 233 -14 281 -14 q 129 23 165 -14 q 93 131 93 60 q 113 271 93 178 l 200 682 l 77 682 l 86 728 l 211 739 l 277 911 l 314 911 l 277 737 l 471 737 l 458 682 l 267 682 l 175 252 q 160 140 160 186 z "},"u":{"ha":775,"x_min":74,"x_max":724,"o":"m 140 157 q 173 77 140 106 q 267 47 205 47 q 273 47 269 47 q 468 147 380 47 q 586 408 555 246 l 657 737 l 724 737 l 567 0 l 513 0 l 532 139 l 528 139 q 254 -11 414 -11 q 120 31 165 -11 q 74 154 74 73 q 89 269 74 197 l 191 737 l 258 737 l 155 264 q 140 157 140 193 z "},"v":{"ha":607,"x_min":71,"x_max":671,"o":"m 71 737 l 139 737 l 212 239 q 235 66 229 127 l 239 66 q 326 240 273 143 l 602 737 l 671 737 l 264 0 l 187 0 l 71 737 z "},"w":{"ha":945,"x_min":82,"x_max":986,"o":"m 518 646 l 514 646 q 416 449 490 583 l 175 0 l 96 0 l 82 737 l 144 737 l 153 180 l 151 74 l 155 74 q 257 275 197 164 l 510 737 l 562 737 l 606 275 q 615 74 615 172 l 619 74 l 635 115 l 704 275 l 921 737 l 986 737 l 642 0 l 568 0 l 528 465 q 518 646 518 623 z "},"x":{"ha":625,"x_min":-49,"x_max":647,"o":"m 33 0 l -49 0 l 271 379 l 104 737 l 172 737 l 313 424 l 566 737 l 647 737 l 343 375 l 518 0 l 452 0 l 300 328 l 33 0 z "},"y":{"ha":624,"x_min":-147,"x_max":684,"o":"m -60 -334 q -147 -319 -106 -334 l -147 -257 q -50 -275 -99 -275 q 134 -130 55 -275 l 201 -5 l 83 737 l 151 737 l 207 366 q 244 61 241 131 l 252 61 q 378 310 281 131 l 614 737 l 684 737 l 200 -138 q 117 -258 152 -223 q -60 -334 43 -334 z "},"z":{"ha":602,"x_min":-20,"x_max":607,"o":"m -20 0 l -9 49 l 517 681 l 149 681 l 160 737 l 607 737 l 595 681 l 78 57 l 486 57 l 475 0 l -20 0 z "},"{":{"ha":481,"x_min":40,"x_max":542,"o":"m 301 -220 l 288 -220 q 114 -85 114 -220 q 125 -7 114 -53 l 163 164 q 175 250 175 225 q 40 358 175 358 l 54 411 q 183 444 139 411 q 244 551 228 477 l 304 818 q 376 950 325 909 q 522 991 428 991 l 542 991 l 530 933 q 443 919 472 932 q 396 878 414 907 q 366 796 378 849 l 315 567 q 253 435 295 477 q 142 382 211 394 l 142 379 q 213 333 188 367 q 239 257 239 299 q 222 139 239 216 l 191 -14 q 182 -87 182 -52 q 207 -142 182 -123 q 301 -161 232 -161 l 301 -220 z "},"|":{"ha":765,"x_min":396,"x_max":464,"o":"m 464 1059 l 464 -346 l 396 -346 l 396 1059 l 464 1059 z "},"}":{"ha":481,"x_min":-28,"x_max":467,"o":"m 225 991 q 353 958 313 991 q 393 857 393 924 q 382 779 393 831 l 345 608 q 332 522 332 546 q 366 441 332 469 q 467 414 399 414 l 453 361 q 323 328 368 361 q 262 221 279 295 l 203 -46 q 129 -179 182 -139 q -16 -220 77 -220 l -28 -220 l -28 -161 q 66 -147 37 -160 q 112 -105 94 -134 q 142 -24 130 -77 l 192 205 q 251 334 210 291 q 366 390 292 377 l 366 393 q 292 441 317 406 q 268 517 268 475 q 280 611 268 559 l 317 786 q 325 856 325 827 q 276 926 325 911 q 197 933 250 933 l 211 991 l 225 991 z "},"~":{"ha":765,"x_min":86,"x_max":729,"o":"m 729 494 q 573 418 654 418 q 399 461 492 418 q 237 505 305 505 q 163 484 203 505 q 86 424 123 463 l 86 488 q 244 562 159 562 q 321 553 284 562 q 428 514 359 544 q 576 475 513 475 q 729 559 648 475 l 729 494 z "},"¡":{"ha":340,"x_min":3,"x_max":293,"o":"m 293 699 q 276 638 293 661 q 229 616 259 616 q 184 665 184 616 q 202 726 184 703 q 248 749 219 749 q 293 699 293 749 m 221 482 l 83 -254 l 3 -254 l 179 482 l 221 482 z "},"¢":{"ha":765,"x_min":170,"x_max":714,"o":"m 359 132 q 219 223 269 150 q 170 414 170 296 q 212 638 170 532 q 333 810 256 745 q 507 885 412 875 l 532 1006 l 593 1006 l 567 886 q 714 857 647 883 l 694 796 q 547 828 621 828 q 389 777 459 828 q 279 626 319 725 q 239 413 239 527 q 289 241 239 298 q 428 184 338 184 q 610 225 517 184 l 610 163 q 419 123 530 123 l 392 -14 l 329 -14 l 359 132 z "},"£":{"ha":765,"x_min":-3,"x_max":808,"o":"m 294 751 q 399 940 322 877 q 594 1003 475 1003 q 808 950 712 1003 l 782 893 l 745 911 q 584 945 671 945 q 439 894 497 945 q 359 745 380 844 l 310 514 l 587 514 l 575 458 l 298 458 l 260 277 q 132 64 226 124 l 647 64 l 633 0 l -3 0 l 8 57 q 121 122 73 64 q 193 282 170 180 l 232 458 l 97 458 l 109 514 l 243 514 l 294 751 z "},"¥":{"ha":765,"x_min":113,"x_max":844,"o":"m 765 991 l 844 991 l 465 433 l 646 433 l 635 382 l 421 382 l 395 253 l 610 253 l 597 196 l 383 196 l 343 0 l 272 0 l 315 196 l 113 196 l 125 253 l 328 253 l 355 382 l 151 382 l 163 433 l 338 433 l 192 991 l 260 991 l 396 437 l 765 991 z "},"§":{"ha":675,"x_min":69,"x_max":682,"o":"m 258 57 q 413 93 359 57 q 467 195 467 128 q 438 267 467 237 q 315 336 409 296 q 182 419 220 375 q 143 530 143 464 q 190 651 143 596 q 325 739 237 706 q 254 798 281 760 q 228 879 228 835 q 298 1007 228 957 q 483 1057 369 1057 q 682 1018 597 1057 l 661 964 q 483 1000 568 1000 q 345 969 399 1000 q 292 885 292 937 q 323 814 292 845 q 438 746 354 784 q 554 681 522 707 q 619 549 619 630 q 450 334 619 415 q 533 200 533 290 q 459 54 533 110 q 256 -1 385 -1 q 69 35 151 -1 l 69 102 q 154 70 102 83 q 258 57 207 57 m 205 533 q 222 467 205 495 q 277 418 239 441 q 404 363 315 396 q 516 441 477 397 q 554 546 554 486 q 515 632 554 595 q 379 704 475 669 q 252 638 298 684 q 205 533 205 592 z "},"¨":{"ha":770,"x_min":334,"x_max":656,"o":"m 334 926 q 348 979 334 960 q 386 999 361 999 q 422 956 422 999 q 408 903 422 923 q 371 884 394 884 q 334 926 334 884 m 567 926 q 581 979 567 960 q 619 999 595 999 q 656 956 656 999 q 642 903 656 923 q 604 884 627 884 q 567 926 567 884 z "},"©":{"ha":1156,"x_min":100,"x_max":1120,"o":"m 610 -14 q 539 -14 610 -14 q 351 56 469 -14 q 166 243 232 126 q 100 496 100 361 q 168 750 100 631 q 355 938 236 869 q 609 1006 473 1006 q 864 938 745 1006 q 1052 751 983 869 q 1120 497 1120 632 q 1053 244 1120 361 q 868 56 987 126 q 610 -14 750 -14 m 382 881 q 330 850 382 881 q 220 716 278 819 q 163 494 163 614 q 222 272 163 374 q 386 109 282 170 q 608 49 489 49 q 830 106 728 49 q 995 269 932 164 q 1057 495 1057 374 q 997 720 1057 616 q 833 883 937 823 q 609 943 730 943 q 382 881 487 943 m 640 741 q 489 676 544 741 q 435 497 435 612 q 635 250 435 250 q 770 279 693 250 l 770 220 q 628 189 700 189 q 433 268 501 189 q 364 489 364 347 q 439 717 364 632 q 640 802 513 802 q 794 766 722 802 l 770 710 q 640 741 703 741 z "},"ª":{"ha":436,"x_min":115,"x_max":514,"o":"m 233 550 q 147 589 178 550 q 115 700 115 627 q 176 918 115 828 q 330 1007 238 1007 q 441 929 409 1007 l 446 929 l 469 999 l 514 999 l 421 558 l 372 558 l 387 643 l 385 643 q 233 550 319 550 m 250 600 q 341 652 294 600 q 407 777 387 704 q 418 854 418 810 q 393 928 418 899 q 330 957 369 957 q 220 882 266 957 q 175 697 175 806 q 250 600 175 600 z "},"«":{"ha":583,"x_min":41,"x_max":572,"o":"m 328 599 l 113 371 l 257 110 l 214 83 l 41 367 l 43 385 l 289 632 l 328 599 m 572 599 l 359 371 l 501 110 l 458 83 l 286 367 l 288 385 l 533 632 l 572 599 z "},"¬":{"ha":765,"x_min":85,"x_max":697,"o":"m 697 184 l 629 184 l 629 456 l 85 456 l 85 524 l 697 524 l 697 184 z "},"®":{"ha":1156,"x_min":102,"x_max":1121,"o":"m 170 239 q 136 298 170 239 q 102 496 102 357 q 171 754 102 636 q 359 939 241 872 q 612 1006 477 1006 q 866 938 747 1006 q 1053 751 985 869 q 1121 497 1121 632 q 1055 244 1121 361 q 870 56 988 126 q 612 -14 751 -14 q 355 54 472 -14 q 170 239 239 122 m 384 881 q 332 850 384 881 q 222 716 279 819 q 164 494 164 614 q 224 272 164 374 q 387 109 283 170 q 610 49 490 49 q 831 106 729 49 q 996 269 934 164 q 1059 495 1059 374 q 998 720 1059 616 q 835 883 938 823 q 610 943 732 943 q 384 881 488 943 m 446 794 l 589 794 q 740 751 688 794 q 793 623 793 709 q 766 527 793 568 q 692 464 739 486 l 852 197 l 771 197 l 628 441 l 514 441 l 514 197 l 446 197 l 446 794 m 514 496 l 590 496 q 688 527 654 496 q 722 619 722 559 q 589 736 722 736 l 514 736 l 514 496 z "},"¯":{"ha":444,"x_min":236,"x_max":715,"o":"m 236 1055 l 272 1121 l 715 1121 l 679 1055 l 236 1055 z "},"°":{"ha":595,"x_min":164,"x_max":561,"o":"m 362 608 q 321 608 362 608 q 222 666 279 608 q 164 806 164 724 q 222 947 164 889 q 362 1006 279 1006 q 503 947 445 1006 q 561 807 561 889 q 503 666 561 724 q 362 608 445 608 m 468 913 q 446 935 468 913 q 363 957 425 957 q 257 912 301 957 q 214 807 214 868 q 257 703 214 747 q 363 660 300 660 q 468 703 425 660 q 511 808 511 747 q 468 913 511 869 z "},"±":{"ha":765,"x_min":86,"x_max":699,"o":"m 86 427 l 86 493 l 358 493 l 358 768 l 427 768 l 427 493 l 699 493 l 699 427 l 427 427 l 427 155 l 358 155 l 358 427 l 86 427 m 86 68 l 699 68 l 699 0 l 86 0 l 86 68 z "},"´":{"ha":770,"x_min":393,"x_max":676,"o":"m 393 842 l 393 856 q 495 952 439 891 q 583 1064 552 1013 l 676 1064 l 676 1048 q 569 941 642 1004 q 439 842 495 878 l 393 842 z "},"¶":{"ha":909,"x_min":146,"x_max":819,"o":"m 751 -176 l 751 991 l 597 991 l 597 -176 l 529 -176 l 529 379 q 431 367 485 367 q 215 451 285 367 q 146 710 146 535 q 220 970 146 884 q 452 1055 294 1055 l 819 1055 l 819 -176 l 751 -176 z "},"·":{"ha":329,"x_min":140,"x_max":249,"o":"m 140 473 q 157 533 140 511 q 204 555 174 555 q 249 507 249 555 q 232 447 249 470 q 186 424 215 424 q 140 473 140 424 z "},"¸":{"ha":285,"x_min":-118,"x_max":134,"o":"m 134 -196 q 82 -297 134 -260 q -65 -334 30 -334 q -118 -329 -98 -334 l -118 -275 q -69 -279 -98 -279 q 65 -201 65 -279 q -37 -129 65 -136 l 37 0 l 92 0 l 39 -93 q 134 -196 134 -113 z "},"º":{"ha":444,"x_min":129,"x_max":504,"o":"m 157 860 q 236 965 185 927 q 355 1003 287 1003 q 464 960 423 1003 q 504 835 504 916 q 443 632 504 716 q 287 547 382 547 q 281 547 283 547 q 167 592 205 547 q 129 715 129 637 q 157 860 129 793 m 341 953 q 260 921 298 953 q 203 837 223 889 q 183 728 183 785 q 183 724 183 726 q 289 597 183 597 q 294 597 292 597 q 405 666 361 597 q 449 835 449 735 q 422 922 449 892 q 345 953 395 953 q 341 953 342 953 z "},"»":{"ha":583,"x_min":22,"x_max":553,"o":"m 22 117 l 235 345 l 93 606 l 136 632 l 309 349 l 307 330 l 61 83 l 22 117 m 267 117 l 479 345 l 338 606 l 380 632 l 553 349 l 551 330 l 306 83 l 267 117 z "},"¿":{"ha":542,"x_min":0,"x_max":484,"o":"m 484 692 q 466 632 484 654 q 419 610 449 610 q 375 659 375 610 q 392 719 375 696 q 437 742 409 742 q 484 692 484 742 m 71 -54 q 115 -169 71 -127 q 240 -211 160 -211 q 449 -143 336 -211 l 475 -201 q 237 -273 350 -273 q 62 -216 123 -273 q 0 -64 0 -159 q 48 103 0 30 q 201 252 96 176 q 292 326 259 294 q 341 389 324 357 q 372 486 357 420 l 435 486 l 431 467 q 377 331 412 380 q 268 227 343 282 q 149 127 189 171 q 71 -54 71 43 z "},"À":{"ha":718,"x_min":-75,"x_max":664,"o":"m 553 1071 l 508 1071 q 431 1170 475 1107 q 363 1279 387 1232 l 363 1293 l 441 1293 q 553 1088 474 1204 l 553 1071 m 4 0 l -75 0 l 482 996 l 528 996 l 664 0 l 593 0 l 546 353 l 199 353 l 4 0 m 538 415 l 511 612 q 485 885 490 776 q 447 809 471 857 q 233 415 422 762 l 538 415 z "},"Á":{"ha":718,"x_min":-75,"x_max":736,"o":"m 453 1071 l 453 1085 q 555 1181 499 1120 q 643 1293 612 1242 l 736 1293 l 736 1278 q 629 1170 702 1234 q 498 1071 555 1107 l 453 1071 m 4 0 l -75 0 l 482 996 l 528 996 l 664 0 l 593 0 l 546 353 l 199 353 l 4 0 m 538 415 l 511 612 q 485 885 490 776 q 447 809 471 857 q 233 415 422 762 l 538 415 z "},"Â":{"ha":718,"x_min":-75,"x_max":683,"o":"m 683 1071 l 650 1071 q 541 1211 604 1110 q 453 1131 502 1171 q 371 1071 404 1091 l 334 1071 l 334 1090 q 442 1192 380 1128 q 528 1293 503 1256 l 571 1293 q 619 1191 586 1249 q 683 1090 652 1133 l 683 1071 m 4 0 l -75 0 l 482 996 l 528 996 l 664 0 l 593 0 l 546 353 l 199 353 l 4 0 m 538 415 l 511 612 q 485 885 490 776 q 447 809 471 857 q 233 415 422 762 l 538 415 z "},"Ã":{"ha":718,"x_min":-75,"x_max":753,"o":"m 618 1076 q 514 1120 577 1076 q 483 1141 492 1135 q 457 1153 475 1146 q 424 1160 440 1160 q 373 1140 393 1160 q 339 1072 353 1120 l 289 1072 q 337 1185 302 1146 q 428 1225 373 1225 q 477 1216 455 1225 q 557 1166 499 1206 q 622 1142 593 1142 q 670 1163 650 1142 q 701 1231 689 1184 l 753 1231 q 702 1114 735 1152 q 618 1076 669 1076 m 4 0 l -75 0 l 482 996 l 528 996 l 664 0 l 593 0 l 546 353 l 199 353 l 4 0 m 538 415 l 511 612 q 485 885 490 776 q 447 809 471 857 q 233 415 422 762 l 538 415 z "},"Ä":{"ha":718,"x_min":-75,"x_max":685,"o":"m 363 1156 q 377 1208 363 1189 q 415 1228 391 1228 q 452 1185 452 1228 q 437 1133 452 1152 q 400 1113 423 1113 q 363 1156 363 1113 m 596 1156 q 610 1208 596 1189 q 648 1228 624 1228 q 685 1185 685 1228 q 671 1133 685 1152 q 633 1113 656 1113 q 596 1156 596 1113 m 4 0 l -75 0 l 482 996 l 528 996 l 664 0 l 593 0 l 546 353 l 199 353 l 4 0 m 538 415 l 511 612 q 485 885 490 776 q 447 809 471 857 q 233 415 422 762 l 538 415 z "},"Å":{"ha":718,"x_min":-75,"x_max":664,"o":"m 458 951 q 390 996 414 963 q 366 1084 366 1029 q 406 1177 366 1139 q 507 1215 447 1215 q 604 1181 568 1215 q 641 1085 641 1147 q 602 984 641 1023 q 534 949 574 957 l 664 0 l 593 0 l 546 353 l 199 353 l 4 0 l -75 0 l 458 951 m 504 1167 q 485 1167 504 1167 q 443 1143 466 1167 q 420 1080 420 1119 q 442 1019 420 1041 q 503 996 465 996 q 565 1021 541 996 q 588 1083 588 1045 q 565 1144 588 1122 q 504 1167 543 1167 m 538 415 l 511 612 q 485 885 490 776 q 447 809 471 857 q 233 415 422 762 l 538 415 z "},"Æ":{"ha":1112,"x_min":-79,"x_max":1161,"o":"m 458 0 l 533 354 l 232 354 l 9 0 l -79 0 l 562 991 l 1161 991 l 1147 928 l 724 928 l 644 553 l 1044 553 l 1031 489 l 632 489 l 541 64 l 965 64 l 951 0 l 458 0 m 549 425 l 654 928 l 595 928 l 277 425 l 549 425 z "},"Ç":{"ha":793,"x_min":115,"x_max":860,"o":"m 652 942 q 414 872 518 942 q 248 665 310 802 q 186 371 186 529 q 261 131 186 213 q 476 49 336 49 q 682 83 572 49 l 682 20 q 468 -14 578 -14 l 460 -14 l 415 -93 q 510 -196 510 -113 q 458 -297 510 -260 q 311 -334 406 -334 q 258 -329 278 -334 l 258 -275 q 307 -279 279 -279 q 441 -201 441 -279 q 339 -129 441 -136 l 408 -10 q 206 85 281 4 q 115 363 115 184 q 186 694 115 543 q 379 925 257 845 q 652 1006 502 1006 q 860 960 771 1006 l 829 899 q 652 942 750 942 z "},"È":{"ha":724,"x_min":69,"x_max":772,"o":"m 604 1071 l 559 1071 q 482 1170 526 1107 q 415 1279 438 1232 l 415 1293 l 493 1293 q 604 1088 526 1204 l 604 1071 m 279 991 l 772 991 l 758 928 l 335 928 l 256 553 l 656 553 l 642 489 l 243 489 l 151 64 l 576 64 l 562 0 l 69 0 l 279 991 z "},"É":{"ha":724,"x_min":69,"x_max":772,"o":"m 444 1071 l 444 1085 q 545 1181 490 1120 q 633 1293 602 1242 l 726 1293 l 726 1278 q 619 1170 692 1234 q 489 1071 545 1107 l 444 1071 m 279 991 l 772 991 l 758 928 l 335 928 l 256 553 l 656 553 l 642 489 l 243 489 l 151 64 l 576 64 l 562 0 l 69 0 l 279 991 z "},"Ê":{"ha":724,"x_min":69,"x_max":772,"o":"m 703 1071 l 669 1071 q 560 1211 623 1110 q 472 1131 522 1171 q 391 1071 423 1091 l 354 1071 l 354 1090 q 461 1192 400 1128 q 547 1293 523 1256 l 591 1293 q 639 1191 606 1249 q 703 1090 671 1133 l 703 1071 m 279 991 l 772 991 l 758 928 l 335 928 l 256 553 l 656 553 l 642 489 l 243 489 l 151 64 l 576 64 l 562 0 l 69 0 l 279 991 z "},"Ë":{"ha":724,"x_min":69,"x_max":772,"o":"m 378 1156 q 392 1208 378 1189 q 431 1228 406 1228 q 467 1185 467 1228 q 453 1133 467 1152 q 416 1113 439 1113 q 378 1156 378 1113 m 612 1156 q 626 1208 612 1189 q 664 1228 640 1228 q 701 1185 701 1228 q 686 1133 701 1152 q 649 1113 672 1113 q 612 1156 612 1113 m 279 991 l 772 991 l 758 928 l 335 928 l 256 553 l 656 553 l 642 489 l 243 489 l 151 64 l 576 64 l 562 0 l 69 0 l 279 991 z "},"Ì":{"ha":342,"x_min":69,"x_max":356,"o":"m 356 1071 l 311 1071 q 234 1170 278 1107 q 167 1279 190 1232 l 167 1293 l 245 1293 q 356 1088 277 1204 l 356 1071 m 346 991 l 136 0 l 69 0 l 279 991 l 346 991 z "},"Í":{"ha":342,"x_min":69,"x_max":567,"o":"m 284 1071 l 284 1085 q 386 1181 330 1120 q 474 1293 443 1242 l 567 1293 l 567 1278 q 460 1170 533 1234 q 330 1071 386 1107 l 284 1071 m 346 991 l 136 0 l 69 0 l 279 991 l 346 991 z "},"Î":{"ha":342,"x_min":69,"x_max":500,"o":"m 500 1071 l 467 1071 q 358 1211 421 1110 q 270 1131 319 1171 q 189 1071 221 1091 l 152 1071 l 152 1090 q 259 1192 198 1128 q 345 1293 321 1256 l 389 1293 q 437 1191 404 1249 q 500 1090 469 1133 l 500 1071 m 346 991 l 136 0 l 69 0 l 279 991 l 346 991 z "},"Ï":{"ha":342,"x_min":69,"x_max":498,"o":"m 176 1156 q 190 1208 176 1189 q 229 1228 204 1228 q 265 1185 265 1228 q 251 1133 265 1152 q 214 1113 237 1113 q 176 1156 176 1113 m 410 1156 q 424 1208 410 1189 q 462 1228 437 1228 q 498 1185 498 1228 q 484 1133 498 1152 q 447 1113 470 1113 q 410 1156 410 1113 m 346 991 l 136 0 l 69 0 l 279 991 l 346 991 z "},"Ñ":{"ha":930,"x_min":69,"x_max":935,"o":"m 720 1076 q 616 1120 680 1076 q 586 1141 594 1135 q 560 1153 577 1146 q 526 1160 543 1160 q 475 1140 495 1160 q 441 1072 456 1120 l 391 1072 q 440 1185 404 1146 q 530 1225 475 1225 q 579 1216 557 1225 q 660 1166 602 1206 q 724 1142 695 1142 q 772 1163 753 1142 q 804 1231 791 1184 l 855 1231 q 805 1114 838 1152 q 720 1076 772 1076 m 317 871 l 311 871 q 274 666 296 770 q 134 0 253 561 l 69 0 l 279 991 l 334 991 l 688 114 l 693 114 q 743 396 708 230 l 871 991 l 935 991 l 725 0 l 667 0 l 317 871 z "},"Ò":{"ha":993,"x_min":117,"x_max":951,"o":"m 671 1071 l 626 1071 q 549 1170 593 1107 q 481 1279 505 1232 l 481 1293 l 559 1293 q 671 1088 592 1204 l 671 1071 m 606 1006 q 862 905 773 1006 q 951 624 951 804 q 888 292 951 444 q 718 63 825 140 q 469 -14 611 -14 q 208 87 300 -14 q 117 373 117 189 q 180 703 117 557 q 353 927 243 849 q 606 1006 463 1006 m 596 942 q 387 873 479 942 q 241 671 296 805 q 187 389 187 537 q 261 136 187 222 q 478 49 336 49 q 682 115 593 49 q 824 319 770 182 q 878 615 878 455 q 807 858 878 774 q 596 942 736 942 z "},"Ó":{"ha":993,"x_min":117,"x_max":951,"o":"m 572 1071 l 572 1085 q 674 1181 618 1120 q 762 1293 731 1242 l 855 1293 l 855 1278 q 748 1170 821 1234 q 618 1071 674 1107 l 572 1071 m 606 1006 q 862 905 773 1006 q 951 624 951 804 q 888 292 951 444 q 718 63 825 140 q 469 -14 611 -14 q 208 87 300 -14 q 117 373 117 189 q 180 703 117 557 q 353 927 243 849 q 606 1006 463 1006 m 596 942 q 387 873 479 942 q 241 671 296 805 q 187 389 187 537 q 261 136 187 222 q 478 49 336 49 q 682 115 593 49 q 824 319 770 182 q 878 615 878 455 q 807 858 878 774 q 596 942 736 942 z "},"Ô":{"ha":993,"x_min":117,"x_max":951,"o":"m 794 1071 l 761 1071 q 652 1211 715 1110 q 564 1131 613 1171 q 482 1071 515 1091 l 446 1071 l 446 1090 q 553 1192 492 1128 q 639 1293 614 1256 l 682 1293 q 730 1191 697 1249 q 794 1090 763 1133 l 794 1071 m 606 1006 q 862 905 773 1006 q 951 624 951 804 q 888 292 951 444 q 718 63 825 140 q 469 -14 611 -14 q 208 87 300 -14 q 117 373 117 189 q 180 703 117 557 q 353 927 243 849 q 606 1006 463 1006 m 596 942 q 387 873 479 942 q 241 671 296 805 q 187 389 187 537 q 261 136 187 222 q 478 49 336 49 q 682 115 593 49 q 824 319 770 182 q 878 615 878 455 q 807 858 878 774 q 596 942 736 942 z "},"Õ":{"ha":993,"x_min":117,"x_max":951,"o":"m 730 1076 q 627 1120 690 1076 q 596 1141 604 1135 q 570 1153 587 1146 q 536 1160 553 1160 q 486 1140 505 1160 q 452 1072 466 1120 l 401 1072 q 450 1185 414 1146 q 541 1225 486 1225 q 590 1216 568 1225 q 670 1166 612 1206 q 734 1142 706 1142 q 782 1163 763 1142 q 814 1231 802 1184 l 865 1231 q 815 1114 848 1152 q 730 1076 782 1076 m 606 1006 q 862 905 773 1006 q 951 624 951 804 q 888 292 951 444 q 718 63 825 140 q 469 -14 611 -14 q 208 87 300 -14 q 117 373 117 189 q 180 703 117 557 q 353 927 243 849 q 606 1006 463 1006 m 596 942 q 387 873 479 942 q 241 671 296 805 q 187 389 187 537 q 261 136 187 222 q 478 49 336 49 q 682 115 593 49 q 824 319 770 182 q 878 615 878 455 q 807 858 878 774 q 596 942 736 942 z "},"Ö":{"ha":993,"x_min":117,"x_max":951,"o":"m 466 1156 q 480 1208 466 1189 q 518 1228 494 1228 q 555 1185 555 1228 q 541 1133 555 1152 q 503 1113 526 1113 q 466 1156 466 1113 m 699 1156 q 713 1208 699 1189 q 751 1228 727 1228 q 788 1185 788 1228 q 774 1133 788 1152 q 736 1113 760 1113 q 699 1156 699 1113 m 606 1006 q 862 905 773 1006 q 951 624 951 804 q 888 292 951 444 q 718 63 825 140 q 469 -14 611 -14 q 208 87 300 -14 q 117 373 117 189 q 180 703 117 557 q 353 927 243 849 q 606 1006 463 1006 m 596 942 q 387 873 479 942 q 241 671 296 805 q 187 389 187 537 q 261 136 187 222 q 478 49 336 49 q 682 115 593 49 q 824 319 770 182 q 878 615 878 455 q 807 858 878 774 q 596 942 736 942 z "},"Ø":{"ha":993,"x_min":94,"x_max":982,"o":"m 951 618 q 916 369 951 490 q 818 163 880 248 q 469 -14 688 -14 q 233 62 323 -14 l 139 -53 l 94 -9 l 193 107 q 117 383 117 208 q 180 704 117 558 q 354 928 243 850 q 609 1006 464 1006 q 844 924 754 1006 l 935 1038 l 982 1002 l 884 878 q 933 769 914 843 q 951 618 951 695 m 596 942 q 302 786 413 942 q 219 606 250 713 q 187 389 187 499 q 240 165 187 243 l 800 865 q 596 942 728 942 m 279 117 q 473 49 351 49 q 683 117 594 49 q 824 317 772 185 q 878 611 878 450 q 866 727 878 669 q 836 815 854 785 l 279 117 z "},"Ù":{"ha":929,"x_min":119,"x_max":946,"o":"m 642 1071 l 597 1071 q 519 1170 563 1107 q 452 1279 475 1232 l 452 1293 l 530 1293 q 642 1088 563 1204 l 642 1071 m 418 -14 q 119 258 119 -14 q 138 395 119 315 l 264 991 l 334 991 l 203 382 q 189 257 189 320 q 421 47 189 47 q 630 113 553 47 q 737 329 706 179 l 878 991 l 946 991 l 806 329 q 672 66 766 146 q 418 -14 578 -14 z "},"Ú":{"ha":929,"x_min":119,"x_max":946,"o":"m 568 1071 l 568 1085 q 670 1181 614 1120 q 758 1293 727 1242 l 851 1293 l 851 1278 q 744 1170 817 1234 q 614 1071 670 1107 l 568 1071 m 418 -14 q 119 258 119 -14 q 138 395 119 315 l 264 991 l 334 991 l 203 382 q 189 257 189 320 q 421 47 189 47 q 630 113 553 47 q 737 329 706 179 l 878 991 l 946 991 l 806 329 q 672 66 766 146 q 418 -14 578 -14 z "},"Û":{"ha":929,"x_min":119,"x_max":946,"o":"m 779 1071 l 745 1071 q 636 1211 699 1110 q 548 1131 597 1171 q 467 1071 499 1091 l 430 1071 l 430 1090 q 537 1192 476 1128 q 623 1293 599 1256 l 667 1293 q 715 1191 682 1249 q 779 1090 747 1133 l 779 1071 m 418 -14 q 119 258 119 -14 q 138 395 119 315 l 264 991 l 334 991 l 203 382 q 189 257 189 320 q 421 47 189 47 q 630 113 553 47 q 737 329 706 179 l 878 991 l 946 991 l 806 329 q 672 66 766 146 q 418 -14 578 -14 z "},"Ü":{"ha":929,"x_min":119,"x_max":946,"o":"m 460 1156 q 474 1208 460 1189 q 512 1228 488 1228 q 549 1185 549 1228 q 534 1133 549 1152 q 497 1113 520 1113 q 460 1156 460 1113 m 693 1156 q 707 1208 693 1189 q 745 1228 721 1228 q 782 1185 782 1228 q 768 1133 782 1152 q 730 1113 753 1113 q 693 1156 693 1113 m 418 -14 q 119 258 119 -14 q 138 395 119 315 l 264 991 l 334 991 l 203 382 q 189 257 189 320 q 421 47 189 47 q 630 113 553 47 q 737 329 706 179 l 878 991 l 946 991 l 806 329 q 672 66 766 146 q 418 -14 578 -14 z "},"ß":{"ha":742,"x_min":-191,"x_max":696,"o":"m -110 -334 q -191 -318 -158 -334 l -191 -257 q -107 -273 -155 -273 q -30 -240 -60 -273 q 16 -135 1 -206 l 222 821 q 497 1063 277 1063 q 643 1021 591 1063 q 696 903 696 979 q 666 807 696 852 q 553 707 635 763 q 456 622 478 653 q 433 554 433 590 q 454 492 433 517 q 519 439 475 467 q 613 349 585 396 q 642 236 642 301 q 569 54 642 121 q 375 -14 496 -14 q 216 31 279 -14 l 216 104 q 293 64 248 79 q 380 49 339 49 q 522 97 469 49 q 574 229 574 145 q 552 317 574 281 q 476 392 530 353 q 397 466 421 430 q 372 544 372 501 q 387 617 372 586 q 428 677 401 648 q 521 754 454 707 q 610 833 591 803 q 631 901 631 864 q 593 976 631 949 q 492 1003 556 1003 q 353 952 405 1003 q 279 796 302 901 l 82 -138 q 13 -287 60 -239 q -110 -334 -35 -334 z "},"à":{"ha":768,"x_min":69,"x_max":732,"o":"m 549 842 l 504 842 q 427 940 471 878 q 359 1050 382 1003 l 359 1064 l 437 1064 q 549 859 470 975 l 549 842 m 260 -14 q 69 240 69 -14 q 120 495 69 374 q 256 682 171 616 q 444 749 342 749 q 633 600 602 749 l 637 600 l 677 737 l 732 737 l 576 0 l 521 0 l 551 186 l 547 186 q 418 37 488 87 q 260 -14 349 -14 m 139 248 q 271 47 139 47 q 395 89 335 47 q 503 201 454 131 q 576 357 551 272 q 602 503 602 442 q 561 638 602 586 q 441 690 520 690 q 294 635 361 690 q 183 469 227 580 q 139 248 139 358 z "},"á":{"ha":768,"x_min":69,"x_max":732,"o":"m 397 842 l 397 856 q 499 952 444 891 q 587 1064 556 1013 l 680 1064 l 680 1048 q 573 941 646 1004 q 443 842 499 878 l 397 842 m 260 -14 q 69 240 69 -14 q 120 495 69 374 q 256 682 171 616 q 444 749 342 749 q 633 600 602 749 l 637 600 l 677 737 l 732 737 l 576 0 l 521 0 l 551 186 l 547 186 q 418 37 488 87 q 260 -14 349 -14 m 139 248 q 271 47 139 47 q 395 89 335 47 q 503 201 454 131 q 576 357 551 272 q 602 503 602 442 q 561 638 602 586 q 441 690 520 690 q 294 635 361 690 q 183 469 227 580 q 139 248 139 358 z "},"â":{"ha":768,"x_min":69,"x_max":732,"o":"m 648 843 l 614 843 q 505 983 568 882 q 417 903 467 943 q 336 843 368 863 l 299 843 l 299 863 q 407 964 345 901 q 492 1065 468 1028 l 536 1065 q 584 963 551 1021 q 648 863 616 905 l 648 843 m 260 -14 q 69 240 69 -14 q 120 495 69 374 q 256 682 171 616 q 444 749 342 749 q 633 600 602 749 l 637 600 l 677 737 l 732 737 l 576 0 l 521 0 l 551 186 l 547 186 q 418 37 488 87 q 260 -14 349 -14 m 139 248 q 271 47 139 47 q 395 89 335 47 q 503 201 454 131 q 576 357 551 272 q 602 503 602 442 q 561 638 602 586 q 441 690 520 690 q 294 635 361 690 q 183 469 227 580 q 139 248 139 358 z "},"ã":{"ha":768,"x_min":69,"x_max":732,"o":"m 582 847 q 478 890 541 847 q 447 911 456 906 q 421 924 439 917 q 388 930 404 930 q 337 911 357 930 q 303 843 317 891 l 253 843 q 301 956 266 917 q 392 996 337 996 q 441 986 419 996 q 522 937 463 977 q 586 913 557 913 q 634 934 614 913 q 665 1002 653 955 l 717 1002 q 666 885 699 922 q 582 847 633 847 m 260 -14 q 69 240 69 -14 q 120 495 69 374 q 256 682 171 616 q 444 749 342 749 q 633 600 602 749 l 637 600 l 677 737 l 732 737 l 576 0 l 521 0 l 551 186 l 547 186 q 418 37 488 87 q 260 -14 349 -14 m 139 248 q 271 47 139 47 q 395 89 335 47 q 503 201 454 131 q 576 357 551 272 q 602 503 602 442 q 561 638 602 586 q 441 690 520 690 q 294 635 361 690 q 183 469 227 580 q 139 248 139 358 z "},"ä":{"ha":768,"x_min":69,"x_max":732,"o":"m 333 926 q 347 979 333 960 q 385 999 361 999 q 422 956 422 999 q 408 903 422 923 q 370 884 393 884 q 333 926 333 884 m 566 926 q 580 979 566 960 q 618 999 594 999 q 655 956 655 999 q 641 903 655 923 q 604 884 627 884 q 566 926 566 884 m 260 -14 q 69 240 69 -14 q 120 495 69 374 q 256 682 171 616 q 444 749 342 749 q 633 600 602 749 l 637 600 l 677 737 l 732 737 l 576 0 l 521 0 l 551 186 l 547 186 q 418 37 488 87 q 260 -14 349 -14 m 139 248 q 271 47 139 47 q 395 89 335 47 q 503 201 454 131 q 576 357 551 272 q 602 503 602 442 q 561 638 602 586 q 441 690 520 690 q 294 635 361 690 q 183 469 227 580 q 139 248 139 358 z "},"å":{"ha":768,"x_min":69,"x_max":732,"o":"m 495 1112 q 525 1112 495 1112 q 592 1078 555 1112 q 629 982 629 1044 q 589 881 629 920 q 489 843 550 843 q 390 879 427 843 q 353 975 353 914 q 393 1074 353 1036 q 495 1112 435 1112 m 491 893 q 510 893 491 893 q 552 918 529 893 q 576 980 576 942 q 553 1041 576 1019 q 492 1064 530 1064 q 431 1040 454 1064 q 408 977 408 1016 q 430 916 408 938 q 491 893 452 893 m 260 -14 q 69 240 69 -14 q 120 495 69 374 q 256 682 171 616 q 444 749 342 749 q 633 600 602 749 l 637 600 l 677 737 l 732 737 l 576 0 l 521 0 l 551 186 l 547 186 q 418 37 488 87 q 260 -14 349 -14 m 139 248 q 271 47 139 47 q 395 89 335 47 q 503 201 454 131 q 576 357 551 272 q 602 503 602 442 q 561 638 602 586 q 441 690 520 690 q 294 635 361 690 q 183 469 227 580 q 139 248 139 358 z "},"æ":{"ha":1086,"x_min":69,"x_max":1063,"o":"m 978 33 q 788 -14 876 -14 q 640 27 700 -14 q 561 139 581 68 l 534 0 l 482 0 l 510 172 l 504 172 q 376 31 440 76 q 232 -14 311 -14 q 111 50 153 -14 q 69 243 69 113 q 117 494 69 374 q 247 682 165 615 q 433 749 330 749 q 545 711 504 749 q 596 604 586 673 l 603 604 l 643 734 l 688 734 l 664 608 q 901 749 758 749 q 1020 707 977 749 q 1063 590 1063 665 q 955 406 1063 468 q 636 343 847 343 l 610 343 q 604 278 604 307 q 652 107 604 166 q 799 47 701 47 q 978 97 871 47 l 978 33 m 250 47 q 344 76 296 47 q 435 155 393 104 q 507 272 477 206 q 550 408 537 337 q 564 518 564 478 q 530 645 564 599 q 435 690 496 690 q 284 632 352 690 q 177 469 216 574 q 139 239 139 363 q 250 47 139 47 m 652 403 q 911 448 829 403 q 993 586 993 493 q 966 663 993 635 q 893 690 940 690 q 735 611 812 690 q 619 403 659 532 l 652 403 z "},"ç":{"ha":602,"x_min":69,"x_max":614,"o":"m 595 659 q 440 690 522 690 q 289 638 359 690 q 179 487 218 586 q 139 276 139 388 q 189 105 139 163 q 331 47 239 47 q 509 87 422 47 l 509 25 q 340 -14 437 -11 l 294 -93 q 389 -196 389 -113 q 337 -297 389 -260 q 191 -334 286 -334 q 138 -329 157 -334 l 138 -275 q 186 -279 158 -279 q 321 -201 321 -279 q 218 -129 321 -136 l 286 -12 q 137 61 194 -1 q 69 268 69 136 q 119 515 69 401 q 254 689 169 629 q 450 749 338 749 q 614 720 543 749 l 595 659 z "},"è":{"ha":629,"x_min":69,"x_max":606,"o":"m 509 842 l 465 842 q 387 940 431 878 q 320 1050 343 1003 l 320 1064 l 398 1064 q 509 859 431 975 l 509 842 m 521 33 q 313 -14 426 -14 q 135 60 201 -14 q 69 262 69 134 q 117 503 69 389 q 250 682 165 616 q 436 749 334 749 q 560 707 514 749 q 606 595 606 665 q 494 407 606 471 q 165 343 382 343 l 143 343 q 139 277 139 314 q 189 106 139 165 q 332 47 239 47 q 521 97 424 47 l 521 33 m 186 403 q 536 586 536 403 q 507 661 536 632 q 428 690 477 690 q 262 612 339 690 q 153 403 186 533 l 186 403 z "},"é":{"ha":629,"x_min":69,"x_max":644,"o":"m 361 842 l 361 856 q 463 952 407 891 q 551 1064 519 1013 l 644 1064 l 644 1048 q 536 941 610 1004 q 406 842 463 878 l 361 842 m 521 33 q 313 -14 426 -14 q 135 60 201 -14 q 69 262 69 134 q 117 503 69 389 q 250 682 165 616 q 436 749 334 749 q 560 707 514 749 q 606 595 606 665 q 494 407 606 471 q 165 343 382 343 l 143 343 q 139 277 139 314 q 189 106 139 165 q 332 47 239 47 q 521 97 424 47 l 521 33 m 186 403 q 536 586 536 403 q 507 661 536 632 q 428 690 477 690 q 262 612 339 690 q 153 403 186 533 l 186 403 z "},"ê":{"ha":629,"x_min":69,"x_max":613,"o":"m 613 842 l 580 842 q 471 982 534 881 q 383 902 432 942 q 301 842 334 862 l 264 842 l 264 861 q 372 963 311 899 q 458 1064 433 1027 l 501 1064 q 549 962 517 1020 q 613 861 582 903 l 613 842 m 521 33 q 313 -14 426 -14 q 135 60 201 -14 q 69 262 69 134 q 117 503 69 389 q 250 682 165 616 q 436 749 334 749 q 560 707 514 749 q 606 595 606 665 q 494 407 606 471 q 165 343 382 343 l 143 343 q 139 277 139 314 q 189 106 139 165 q 332 47 239 47 q 521 97 424 47 l 521 33 m 186 403 q 536 586 536 403 q 507 661 536 632 q 428 690 477 690 q 262 612 339 690 q 153 403 186 533 l 186 403 z "},"ë":{"ha":629,"x_min":69,"x_max":618,"o":"m 296 926 q 310 979 296 960 q 348 999 323 999 q 385 956 385 999 q 370 903 385 923 q 333 884 356 884 q 296 926 296 884 m 529 926 q 543 979 529 960 q 581 999 557 999 q 618 956 618 999 q 604 903 618 923 q 566 884 589 884 q 529 926 529 884 m 521 33 q 313 -14 426 -14 q 135 60 201 -14 q 69 262 69 134 q 117 503 69 389 q 250 682 165 616 q 436 749 334 749 q 560 707 514 749 q 606 595 606 665 q 494 407 606 471 q 165 343 382 343 l 143 343 q 139 277 139 314 q 189 106 139 165 q 332 47 239 47 q 521 97 424 47 l 521 33 m 186 403 q 536 586 536 403 q 507 661 536 632 q 428 690 477 690 q 262 612 339 690 q 153 403 186 533 l 186 403 z "},"ì":{"ha":322,"x_min":52,"x_max":308,"o":"m 308 842 l 263 842 q 185 940 229 878 q 119 1050 142 1003 l 119 1064 l 197 1064 q 308 859 229 975 l 308 842 m 52 0 l 208 737 l 273 737 l 118 0 l 52 0 z "},"í":{"ha":322,"x_min":52,"x_max":475,"o":"m 193 842 l 193 856 q 294 952 239 891 q 382 1064 351 1013 l 475 1064 l 475 1048 q 368 941 441 1004 q 238 842 294 878 l 193 842 m 208 737 l 273 737 l 118 0 l 52 0 l 208 737 z "},"î":{"ha":322,"x_min":52,"x_max":435,"o":"m 435 842 l 402 842 q 293 982 356 881 q 205 902 254 942 q 123 842 156 862 l 87 842 l 87 861 q 194 963 133 899 q 280 1064 256 1027 l 323 1064 q 372 962 339 1020 q 435 861 404 903 l 435 842 m 208 737 l 273 737 l 118 0 l 52 0 l 208 737 z "},"ï":{"ha":322,"x_min":52,"x_max":438,"o":"m 116 926 q 130 979 116 960 q 168 999 144 999 q 205 956 205 999 q 191 903 205 923 q 153 884 176 884 q 116 926 116 884 m 349 926 q 363 979 349 960 q 401 999 377 999 q 438 956 438 999 q 424 903 438 923 q 387 884 410 884 q 349 926 349 884 m 208 737 l 273 737 l 118 0 l 52 0 l 208 737 z "},"ñ":{"ha":775,"x_min":52,"x_max":728,"o":"m 593 847 q 489 890 552 847 q 458 911 467 906 q 432 924 450 917 q 399 930 415 930 q 348 911 368 930 q 314 843 328 891 l 264 843 q 312 956 277 917 q 403 996 348 996 q 452 986 430 996 q 532 937 474 977 q 596 913 568 913 q 645 934 625 913 q 676 1002 664 955 l 728 1002 q 677 885 710 922 q 593 847 644 847 m 619 469 q 633 581 633 532 q 603 661 633 631 q 513 690 573 690 q 370 645 436 690 q 187 323 237 555 l 118 0 l 52 0 l 208 737 l 264 737 l 239 587 l 243 587 q 525 749 353 749 q 657 706 612 749 q 701 581 701 663 q 685 457 701 533 l 585 0 l 518 0 l 619 469 z "},"ò":{"ha":762,"x_min":66,"x_max":696,"o":"m 505 842 l 460 842 q 382 940 426 878 q 315 1050 338 1003 l 315 1064 l 393 1064 q 505 859 426 975 l 505 842 m 440 751 q 629 677 563 751 q 696 473 696 604 q 647 225 696 342 q 515 47 599 109 q 321 -14 431 -14 q 132 60 197 -14 q 66 269 66 134 q 116 517 66 404 q 250 690 165 629 q 440 751 334 751 m 627 468 q 627 524 627 468 q 577 637 627 581 q 439 693 528 693 q 283 640 350 693 q 176 487 216 586 q 136 277 136 387 q 328 45 136 45 q 480 97 414 45 q 587 252 547 149 q 627 468 627 355 z "},"ó":{"ha":762,"x_min":66,"x_max":696,"o":"m 389 842 l 389 856 q 490 952 435 891 q 578 1064 547 1013 l 671 1064 l 671 1048 q 564 941 637 1004 q 434 842 490 878 l 389 842 m 440 751 q 629 677 563 751 q 696 473 696 604 q 647 225 696 342 q 515 47 599 109 q 321 -14 431 -14 q 132 60 197 -14 q 66 269 66 134 q 116 517 66 404 q 250 690 165 629 q 440 751 334 751 m 627 468 q 627 524 627 468 q 577 637 627 581 q 439 693 528 693 q 283 640 350 693 q 176 487 216 586 q 136 277 136 387 q 328 45 136 45 q 480 97 414 45 q 587 252 547 149 q 627 468 627 355 z "},"ô":{"ha":762,"x_min":66,"x_max":696,"o":"m 638 842 l 605 842 q 496 982 559 881 q 408 902 457 942 q 326 842 359 862 l 290 842 l 290 861 q 397 963 336 899 q 483 1064 458 1027 l 526 1064 q 574 962 541 1020 q 638 861 607 903 l 638 842 m 440 751 q 629 677 563 751 q 696 473 696 604 q 647 225 696 342 q 515 47 599 109 q 321 -14 431 -14 q 132 60 197 -14 q 66 269 66 134 q 116 517 66 404 q 250 690 165 629 q 440 751 334 751 m 627 468 q 627 524 627 468 q 577 637 627 581 q 439 693 528 693 q 283 640 350 693 q 176 487 216 586 q 136 277 136 387 q 328 45 136 45 q 480 97 414 45 q 587 252 547 149 q 627 468 627 355 z "},"õ":{"ha":762,"x_min":66,"x_max":704,"o":"m 569 847 q 465 890 528 847 q 434 911 443 906 q 409 924 426 917 q 375 930 391 930 q 324 911 344 930 q 290 843 304 891 l 240 843 q 289 956 253 917 q 379 996 324 996 q 428 986 406 996 q 509 937 450 977 q 573 913 544 913 q 621 934 602 913 q 652 1002 640 955 l 704 1002 q 653 885 686 922 q 569 847 621 847 m 440 751 q 629 677 563 751 q 696 473 696 604 q 647 225 696 342 q 515 47 599 109 q 321 -14 431 -14 q 132 60 197 -14 q 66 269 66 134 q 116 517 66 404 q 250 690 165 629 q 440 751 334 751 m 627 468 q 627 524 627 468 q 577 637 627 581 q 439 693 528 693 q 283 640 350 693 q 176 487 216 586 q 136 277 136 387 q 328 45 136 45 q 480 97 414 45 q 587 252 547 149 q 627 468 627 355 z "},"ö":{"ha":762,"x_min":66,"x_max":696,"o":"m 317 926 q 331 979 317 960 q 370 999 345 999 q 406 956 406 999 q 392 903 406 923 q 355 884 378 884 q 317 926 317 884 m 551 926 q 565 979 551 960 q 603 999 578 999 q 640 956 640 999 q 625 903 640 923 q 588 884 611 884 q 551 926 551 884 m 440 751 q 629 677 563 751 q 696 473 696 604 q 647 225 696 342 q 515 47 599 109 q 321 -14 431 -14 q 132 60 197 -14 q 66 269 66 134 q 116 517 66 404 q 250 690 165 629 q 440 751 334 751 m 627 468 q 627 524 627 468 q 577 637 627 581 q 439 693 528 693 q 283 640 350 693 q 176 487 216 586 q 136 277 136 387 q 328 45 136 45 q 480 97 414 45 q 587 252 547 149 q 627 468 627 355 z "},"÷":{"ha":765,"x_min":114,"x_max":726,"o":"m 419 654 q 354 727 354 654 q 419 799 354 799 q 468 780 450 799 q 486 725 486 761 q 468 672 486 690 q 419 654 449 654 m 114 524 l 726 524 l 726 456 l 114 456 l 114 524 m 419 180 q 354 253 354 180 q 419 325 354 325 q 469 306 452 325 q 486 252 486 288 q 468 198 486 216 q 419 180 449 180 z "},"ø":{"ha":762,"x_min":31,"x_max":728,"o":"m 111 86 q 66 281 66 159 q 116 517 66 404 q 250 690 165 629 q 438 751 334 751 q 610 696 542 751 l 684 786 l 728 750 l 648 653 q 696 475 696 583 q 647 225 696 342 q 515 47 599 109 q 321 -14 431 -14 q 149 43 211 -14 l 74 -49 l 31 -12 l 111 86 m 568 644 q 434 693 518 693 q 283 640 350 693 q 176 487 216 586 q 136 277 136 387 q 158 143 136 193 l 568 644 m 191 94 q 325 45 236 45 q 480 97 414 45 q 587 252 547 149 q 627 476 627 355 q 603 597 627 544 l 191 94 z "},"ù":{"ha":775,"x_min":74,"x_max":724,"o":"m 525 842 l 480 842 q 402 940 446 878 q 336 1050 359 1003 l 336 1064 l 414 1064 q 525 859 446 975 l 525 842 m 140 157 q 173 77 140 106 q 267 47 205 47 q 273 47 269 47 q 468 147 380 47 q 586 408 555 246 l 657 737 l 724 737 l 567 0 l 513 0 l 532 139 l 528 139 q 254 -11 414 -11 q 120 31 165 -11 q 74 154 74 73 q 89 269 74 197 l 191 737 l 258 737 l 155 264 q 140 157 140 193 z "},"ú":{"ha":775,"x_min":74,"x_max":724,"o":"m 425 842 l 425 856 q 527 952 471 891 q 615 1064 584 1013 l 708 1064 l 708 1048 q 601 941 674 1004 q 471 842 527 878 l 425 842 m 140 157 q 173 77 140 106 q 267 47 205 47 q 273 47 269 47 q 468 147 380 47 q 586 408 555 246 l 657 737 l 724 737 l 567 0 l 513 0 l 532 139 l 528 139 q 254 -11 414 -11 q 120 31 165 -11 q 74 154 74 73 q 89 269 74 197 l 191 737 l 258 737 l 155 264 q 140 157 140 193 z "},"û":{"ha":775,"x_min":74,"x_max":724,"o":"m 649 842 l 616 842 q 507 982 570 881 q 419 902 468 942 q 337 842 370 862 l 300 842 l 300 861 q 408 963 347 899 q 494 1064 469 1027 l 537 1064 q 585 962 552 1020 q 649 861 618 903 l 649 842 m 140 157 q 173 77 140 106 q 267 47 205 47 q 273 47 269 47 q 468 147 380 47 q 586 408 555 246 l 657 737 l 724 737 l 567 0 l 513 0 l 532 139 l 528 139 q 254 -11 414 -11 q 120 31 165 -11 q 74 154 74 73 q 89 269 74 197 l 191 737 l 258 737 l 155 264 q 140 157 140 193 z "},"ü":{"ha":775,"x_min":74,"x_max":724,"o":"m 328 926 q 341 979 328 960 q 380 999 355 999 q 416 956 416 999 q 402 903 416 923 q 365 884 388 884 q 328 926 328 884 m 561 926 q 575 979 561 960 q 613 999 589 999 q 650 956 650 999 q 635 903 650 923 q 598 884 621 884 q 561 926 561 884 m 140 157 q 173 77 140 106 q 267 47 205 47 q 273 47 269 47 q 468 147 380 47 q 586 408 555 246 l 657 737 l 724 737 l 567 0 l 513 0 l 532 139 l 528 139 q 254 -11 414 -11 q 120 31 165 -11 q 74 154 74 73 q 89 269 74 197 l 191 737 l 258 737 l 155 264 q 140 157 140 193 z "},"ÿ":{"ha":624,"x_min":-147,"x_max":684,"o":"m 240 926 q 254 979 240 960 q 292 999 268 999 q 329 956 329 999 q 315 903 329 923 q 277 884 300 884 q 240 926 240 884 m 473 926 q 487 979 473 960 q 526 999 501 999 q 562 956 562 999 q 548 903 562 923 q 511 884 534 884 q 473 926 473 884 m -60 -334 q -147 -319 -106 -334 l -147 -257 q -50 -275 -99 -275 q 134 -130 55 -275 l 201 -5 l 83 737 l 151 737 l 207 366 q 244 61 241 131 l 252 61 q 378 310 281 131 l 614 737 l 684 737 l 200 -138 q 117 -258 152 -223 q -60 -334 43 -334 z "},"ı":{"ha":322,"x_min":52,"x_max":273,"o":"m 52 0 l 208 737 l 273 737 l 118 0 l 52 0 z "},"Œ":{"ha":1198,"x_min":117,"x_max":1247,"o":"m 469 -14 q 208 87 299 -14 q 117 374 117 190 q 181 705 117 557 q 358 929 246 853 q 618 1006 471 1006 q 781 991 707 1006 l 1247 991 l 1234 928 l 810 928 l 730 553 l 1131 553 l 1117 489 l 718 489 l 627 64 l 1051 64 l 1038 0 l 586 0 q 536 -8 572 -3 q 469 -14 500 -14 m 612 942 q 394 875 488 942 q 243 676 300 809 q 187 383 187 543 q 261 136 187 222 q 478 49 335 49 q 557 57 524 49 l 741 932 q 612 942 666 942 z "},"œ":{"ha":1166,"x_min":66,"x_max":1143,"o":"m 1059 33 q 864 -14 964 -14 q 701 34 764 -14 q 616 170 638 81 q 494 35 572 83 q 321 -14 417 -14 q 132 60 197 -14 q 66 269 66 134 q 116 517 66 404 q 250 690 165 629 q 435 751 334 751 q 601 701 536 751 q 686 557 666 650 q 810 698 734 647 q 969 749 886 749 q 1098 707 1052 749 q 1143 595 1143 665 q 1032 407 1143 471 q 703 343 921 343 l 681 343 q 676 277 676 319 q 726 106 676 165 q 869 47 777 47 q 1059 97 962 47 l 1059 33 m 627 468 q 627 524 627 468 q 577 637 627 581 q 439 693 528 693 q 283 640 350 693 q 176 487 216 586 q 136 277 136 387 q 328 45 136 45 q 480 97 414 45 q 587 252 547 149 q 627 468 627 355 m 724 403 q 1074 586 1074 403 q 1044 662 1074 633 q 965 690 1014 690 q 800 612 876 690 q 690 403 724 534 l 724 403 z "},"Ÿ":{"ha":654,"x_min":131,"x_max":783,"o":"m 308 1156 q 322 1208 308 1189 q 360 1228 336 1228 q 397 1185 397 1228 q 382 1133 397 1152 q 345 1113 368 1113 q 308 1156 308 1113 m 541 1156 q 555 1208 541 1189 q 593 1228 569 1228 q 630 1185 630 1228 q 616 1133 630 1152 q 578 1113 602 1113 q 541 1156 541 1113 m 783 991 l 355 359 l 282 0 l 211 0 l 292 370 l 131 991 l 199 991 l 335 437 l 704 991 l 783 991 z "},"ƒ":{"ha":765,"x_min":1,"x_max":745,"o":"m 71 -334 q 1 -321 37 -334 l 1 -260 q 69 -271 36 -271 q 160 -235 128 -271 q 211 -109 191 -199 l 357 582 l 218 582 l 228 628 l 367 637 l 399 789 q 478 954 422 903 q 632 1006 533 1006 q 745 985 682 1006 l 728 930 q 628 949 669 949 q 524 912 562 949 q 467 791 485 876 l 435 637 l 603 637 l 591 582 l 424 582 l 273 -125 q 201 -285 250 -237 q 71 -334 154 -334 z "},"ˆ":{"ha":770,"x_min":301,"x_max":650,"o":"m 650 842 l 616 842 q 507 982 570 881 q 419 902 469 942 q 338 842 370 862 l 301 842 l 301 861 q 409 963 347 899 q 494 1064 470 1027 l 538 1064 q 586 962 553 1020 q 650 861 618 903 l 650 842 z "},"ˇ":{"ha":770,"x_min":349,"x_max":697,"o":"m 349 1064 l 382 1064 q 492 924 431 1023 q 576 1001 532 965 q 661 1064 626 1042 l 697 1064 l 697 1044 q 590 944 648 1004 q 504 842 532 883 l 461 842 q 410 947 442 890 q 349 1044 378 1004 l 349 1064 z "},"˘":{"ha":770,"x_min":335,"x_max":684,"o":"m 684 1004 q 490 846 645 846 q 374 880 414 846 q 335 977 335 914 l 335 991 l 336 1004 l 383 1004 q 408 934 383 957 q 491 911 433 911 q 584 932 549 911 q 635 1004 618 954 l 684 1004 z "},"˙":{"ha":298,"x_min":221,"x_max":315,"o":"m 221 926 q 236 987 221 965 q 277 1008 250 1008 q 315 960 315 1008 q 300 899 315 921 q 261 876 286 876 q 221 926 221 876 z "},"˚":{"ha":802,"x_min":380,"x_max":656,"o":"m 522 1112 q 552 1112 522 1112 q 619 1078 583 1112 q 656 982 656 1044 q 616 881 656 920 q 516 843 577 843 q 417 879 454 843 q 380 975 380 914 q 420 1074 380 1036 q 522 1112 462 1112 m 518 893 q 537 893 518 893 q 579 918 556 893 q 603 980 603 942 q 580 1041 603 1019 q 519 1064 557 1064 q 458 1040 481 1064 q 435 977 435 1016 q 457 916 435 938 q 518 893 479 893 z "},"˛":{"ha":236,"x_min":-92,"x_max":104,"o":"m -29 -174 q 31 -229 -29 -229 q 82 -222 54 -229 l 82 -271 q 9 -281 54 -281 q -63 -255 -35 -281 q -92 -182 -92 -229 q -59 -92 -92 -136 q 56 0 -26 -48 l 104 0 l 54 -41 q -29 -174 -29 -105 z "},"˜":{"ha":770,"x_min":235,"x_max":699,"o":"m 564 847 q 460 890 523 847 q 429 911 437 906 q 403 924 420 917 q 370 930 386 930 q 319 911 338 930 q 285 843 299 891 l 235 843 q 283 956 248 917 q 374 996 319 996 q 423 986 401 996 q 503 937 445 977 q 567 913 538 913 q 615 934 596 913 q 647 1002 635 955 l 699 1002 q 648 885 681 922 q 564 847 615 847 z "},"˝":{"ha":770,"x_min":313,"x_max":749,"o":"m 313 842 l 313 861 q 387 948 343 893 q 467 1064 430 1004 l 536 1064 l 536 1048 q 438 932 499 998 q 339 842 380 871 l 313 842 m 525 842 l 525 861 q 598 949 554 893 q 679 1064 642 1006 l 749 1064 l 749 1048 q 649 932 708 994 q 550 842 587 868 l 525 842 z "},"ְ":{"ha":0,"x_min":361,"x_max":489,"o":"m 454 -54 q 489 -87 489 -54 q 487 -106 489 -96 q 433 -156 475 -156 q 399 -125 399 -156 q 402 -106 399 -117 q 454 -54 413 -54 m 416 -233 q 452 -265 452 -233 q 449 -284 452 -273 q 395 -335 438 -335 q 361 -304 361 -335 q 364 -284 361 -295 q 416 -233 376 -233 z "},"ֱ":{"ha":0,"x_min":235,"x_max":692,"o":"m 290 -54 q 324 -87 324 -54 q 322 -106 324 -96 q 269 -156 311 -156 q 235 -125 235 -156 q 238 -106 235 -117 q 290 -54 249 -54 m 485 -54 q 519 -87 519 -54 q 517 -106 519 -96 q 463 -156 505 -156 q 430 -125 430 -156 q 433 -106 430 -117 q 485 -54 444 -54 m 657 -54 q 692 -87 692 -54 q 690 -106 692 -96 q 635 -156 678 -156 q 603 -125 603 -156 q 606 -106 603 -117 q 657 -54 616 -54 m 349 -233 q 384 -265 384 -233 q 381 -284 384 -273 q 327 -335 370 -335 q 294 -304 294 -335 q 296 -284 294 -295 q 349 -233 308 -233 m 619 -233 q 654 -265 654 -233 q 652 -284 654 -273 q 597 -335 641 -335 q 565 -304 565 -335 q 568 -284 565 -295 q 619 -233 579 -233 z "},"ֲ":{"ha":0,"x_min":256,"x_max":652,"o":"m 617 -54 q 652 -87 652 -54 q 650 -106 652 -96 q 595 -156 638 -156 q 562 -125 562 -156 q 565 -106 562 -117 q 617 -54 576 -54 m 498 -129 l 256 -129 l 267 -81 l 508 -81 l 498 -129 m 579 -233 q 614 -265 614 -233 q 612 -284 614 -273 q 557 -335 600 -335 q 524 -304 524 -335 q 527 -284 524 -295 q 579 -233 538 -233 z "},"ֳ":{"ha":0,"x_min":256,"x_max":652,"o":"m 617 -54 q 652 -87 652 -54 q 650 -106 652 -96 q 595 -156 638 -156 q 562 -125 562 -156 q 565 -106 562 -117 q 617 -54 576 -54 m 498 -129 l 401 -129 l 372 -266 l 323 -266 l 353 -129 l 256 -129 l 267 -81 l 508 -81 l 498 -129 m 579 -233 q 614 -265 614 -233 q 612 -284 614 -273 q 557 -335 600 -335 q 524 -304 524 -335 q 527 -284 524 -295 q 579 -233 538 -233 z "},"ִ":{"ha":0,"x_min":380,"x_max":470,"o":"m 435 -54 q 470 -87 470 -54 q 468 -106 470 -96 q 414 -156 456 -156 q 380 -125 380 -156 q 383 -106 380 -117 q 435 -54 394 -54 z "},"ֵ":{"ha":0,"x_min":283,"x_max":567,"o":"m 338 -54 q 372 -87 372 -54 q 370 -106 372 -96 q 317 -156 359 -156 q 283 -125 283 -156 q 286 -106 283 -117 q 338 -54 297 -54 m 533 -54 q 567 -87 567 -54 q 565 -106 567 -96 q 511 -156 553 -156 q 478 -125 478 -156 q 481 -106 478 -117 q 533 -54 492 -54 z "},"ֶ":{"ha":0,"x_min":303,"x_max":587,"o":"m 358 -54 q 392 -87 392 -54 q 390 -106 392 -96 q 336 -156 378 -156 q 303 -125 303 -156 q 306 -106 303 -117 q 358 -54 317 -54 m 553 -54 q 587 -87 587 -54 q 585 -106 587 -96 q 531 -156 573 -156 q 498 -125 498 -156 q 500 -106 498 -117 q 553 -54 511 -54 m 416 -233 q 452 -265 452 -233 q 449 -284 452 -273 q 395 -335 438 -335 q 361 -304 361 -335 q 364 -284 361 -295 q 416 -233 376 -233 z "},"ַ":{"ha":0,"x_min":298,"x_max":551,"o":"m 541 -124 l 298 -124 l 309 -75 l 551 -75 l 541 -124 z "},"ָ":{"ha":0,"x_min":313,"x_max":566,"o":"m 555 -124 l 458 -124 l 429 -260 l 381 -260 l 410 -124 l 313 -124 l 323 -75 l 566 -75 l 555 -124 z "},"ֹ":{"ha":0,"x_min":380,"x_max":470,"o":"m 435 922 q 470 889 470 922 q 468 871 470 881 q 414 821 456 821 q 380 852 380 821 q 383 871 380 860 q 435 922 394 922 z "},"ֺ":{"ha":0,"x_min":352,"x_max":441,"o":"m 406 922 q 441 889 441 922 q 439 871 441 881 q 385 821 427 821 q 352 851 352 821 q 355 871 352 860 q 406 922 366 922 z "},"ֻ":{"ha":0,"x_min":303,"x_max":549,"o":"m 358 -54 q 392 -87 392 -54 q 390 -106 392 -96 q 336 -156 378 -156 q 303 -125 303 -156 q 306 -106 303 -117 q 358 -54 317 -54 m 435 -143 q 471 -176 471 -143 q 468 -195 471 -184 q 414 -245 457 -245 q 380 -214 380 -245 q 383 -195 380 -205 q 435 -143 395 -143 m 515 -233 q 549 -264 549 -233 q 547 -284 549 -273 q 493 -335 536 -335 q 460 -303 460 -335 q 463 -284 460 -295 q 515 -233 474 -233 z "},"ּ":{"ha":0,"x_min":380,"x_max":470,"o":"m 435 433 q 470 400 470 433 q 468 382 470 392 q 414 332 456 332 q 380 363 380 332 q 383 382 380 371 q 435 433 394 433 z "},"ֽ":{"ha":852,"x_min":373,"x_max":478,"o":"m 433 -300 l 373 -300 l 418 -93 l 478 -93 l 433 -300 z "},"־":{"ha":416,"x_min":149,"x_max":471,"o":"m 460 814 l 149 814 l 161 875 l 471 875 l 460 814 z "},"ׁ":{"ha":0,"x_min":349,"x_max":438,"o":"m 404 922 q 438 889 438 922 q 436 871 438 881 q 382 821 425 821 q 349 852 349 821 q 351 871 349 860 q 404 922 362 922 z "},"ׂ":{"ha":0,"x_min":380,"x_max":470,"o":"m 435 922 q 470 889 470 922 q 468 871 470 881 q 414 821 456 821 q 380 852 380 821 q 383 871 380 860 q 435 922 394 922 z "},"ׇ":{"ha":0,"x_min":62,"x_max":267,"o":"m 257 -87 l 184 -87 l 167 -167 l 119 -167 l 136 -87 l 62 -87 l 73 -39 l 267 -39 l 257 -87 z "},"א":{"ha":774,"x_min":-17,"x_max":780,"o":"m 780 875 l 712 555 q 696 490 705 519 q 669 426 687 461 q 629 363 652 390 q 571 314 607 337 q 492 280 536 291 l 602 0 l 527 0 l 315 542 q 251 525 284 542 q 165 444 197 497 q 114 304 133 391 l 50 0 l -17 0 l 47 304 q 65 373 56 342 q 94 445 75 405 q 138 513 113 484 q 203 567 163 543 q 292 600 243 591 l 184 875 l 258 875 l 469 337 q 512 351 492 341 q 597 424 568 378 q 646 555 627 469 l 713 875 l 780 875 z "},"ב":{"ha":689,"x_min":-45,"x_max":610,"o":"m 142 882 q 308 888 249 888 q 396 886 367 888 q 454 879 425 884 q 506 864 483 873 q 548 841 528 854 q 581 809 568 828 q 602 766 594 790 q 610 711 610 743 q 602 642 610 679 l 477 60 l 580 60 l 568 0 l -45 0 l -33 60 l 408 60 l 532 642 q 539 697 539 673 q 533 740 539 722 q 517 772 527 758 q 491 795 507 786 q 458 811 475 805 q 416 821 440 818 q 314 827 374 827 q 129 820 253 827 l 142 882 z "},"ג":{"ha":522,"x_min":-39,"x_max":495,"o":"m 364 888 q 479 834 450 888 q 495 765 495 803 q 487 688 495 726 l 340 0 l 281 0 l 305 144 l 300 144 q 224 62 254 87 q 48 -3 147 -3 q -39 5 9 -3 l -13 68 q 68 60 22 60 q 239 138 161 60 q 345 347 317 216 l 418 688 q 426 760 426 730 q 407 808 426 789 q 346 827 387 827 q 243 816 305 827 l 256 878 q 364 888 310 888 z "},"ד":{"ha":671,"x_min":111,"x_max":736,"o":"m 736 875 l 726 823 q 668 800 692 812 q 616 766 644 787 q 539 629 559 722 l 406 0 l 336 0 l 470 629 q 496 703 479 669 q 531 757 513 737 q 594 810 568 797 l 605 815 l 111 815 l 123 875 l 736 875 z "},"ה":{"ha":852,"x_min":29,"x_max":787,"o":"m 215 875 q 480 888 416 888 q 573 886 544 888 q 631 879 602 884 q 683 864 660 873 q 725 841 705 854 q 758 809 745 828 q 779 766 771 790 q 787 711 787 743 q 779 642 787 679 l 642 0 l 572 0 l 709 642 q 715 697 715 673 q 710 740 715 722 q 694 772 704 758 q 668 795 684 786 q 635 811 652 805 q 594 821 617 818 q 477 827 551 827 q 201 812 403 827 l 215 875 m 98 0 l 29 0 l 146 551 l 216 551 l 98 0 z "},"ו":{"ha":316,"x_min":31,"x_max":286,"o":"m 100 0 l 31 0 l 216 875 l 286 875 l 100 0 z "},"ז":{"ha":316,"x_min":30,"x_max":388,"o":"m 388 875 l 377 823 q 282 717 329 790 q 216 553 236 644 l 99 0 l 30 0 l 147 553 q 180 654 159 606 q 227 735 202 703 q 301 815 271 792 l 105 815 l 118 875 l 388 875 z "},"ח":{"ha":852,"x_min":29,"x_max":787,"o":"m 278 879 q 306 881 278 879 q 393 886 335 883 q 497 888 451 888 q 573 886 544 888 q 631 879 602 884 q 683 864 660 873 q 725 841 705 854 q 758 809 745 828 q 779 766 771 790 q 787 711 787 743 q 779 642 787 679 l 642 0 l 572 0 l 709 642 q 715 697 715 673 q 710 740 715 722 q 694 772 704 758 q 668 795 684 786 q 635 811 652 805 q 594 821 617 818 q 477 827 551 827 q 272 817 403 827 l 98 0 l 29 0 l 215 875 q 278 879 220 875 z "},"ט":{"ha":853,"x_min":94,"x_max":794,"o":"m 540 888 q 758 778 696 888 q 794 616 794 715 q 772 437 794 538 q 614 97 724 208 q 348 -14 505 -14 q 129 97 192 -14 q 94 259 94 159 q 115 437 94 337 l 208 875 l 278 875 l 185 437 q 163 269 163 337 q 198 121 163 174 q 261 67 220 87 q 361 47 302 47 q 469 67 420 47 q 554 120 518 87 q 618 204 589 154 q 665 311 646 255 q 699 437 684 368 q 721 607 721 538 q 688 754 721 702 q 626 808 667 788 q 526 827 585 827 q 463 821 495 827 l 476 883 q 540 888 509 888 z "},"י":{"ha":300,"x_min":95,"x_max":281,"o":"m 180 404 l 101 327 l 95 327 l 212 875 l 281 875 l 180 404 z "},"ך":{"ha":656,"x_min":129,"x_max":601,"o":"m 531 605 q 319 827 531 827 q 201 813 254 827 q 159 800 184 808 q 129 791 134 792 l 142 855 q 227 878 172 867 q 339 888 281 888 q 446 871 397 888 q 525 826 495 855 q 598 675 588 766 q 601 622 601 645 q 587 486 601 553 l 412 -334 l 342 -334 l 516 486 q 531 605 531 551 z "},"כ":{"ha":652,"x_min":-42,"x_max":596,"o":"m 222 878 q 249 883 222 878 q 340 888 275 888 q 459 864 404 888 q 543 802 514 840 q 584 714 572 764 q 596 616 596 664 q 581 486 596 558 l 555 363 q 488 186 534 265 q 436 114 469 152 q 364 48 403 75 q 269 4 326 22 q 156 -14 213 -14 q 51 -7 98 -14 q -19 5 3 -1 l -42 11 l -26 84 q -4 74 -19 80 q 59 58 10 68 q 166 47 108 47 q 279 73 224 47 q 367 134 333 98 q 428 217 401 170 q 485 363 468 288 l 511 486 q 526 605 526 551 q 315 827 526 827 q 155 800 238 827 q 124 791 128 792 l 138 855 q 222 878 168 868 z "},"ל":{"ha":631,"x_min":114,"x_max":673,"o":"m 673 879 l 656 802 l 429 344 l 294 0 l 223 0 l 355 336 l 594 814 l 114 814 l 168 1064 l 237 1064 l 197 879 l 673 879 z "},"ם":{"ha":845,"x_min":22,"x_max":780,"o":"m 271 879 q 300 881 271 879 q 386 886 328 883 q 491 888 444 888 q 566 886 537 888 q 624 879 595 884 q 676 864 653 873 q 719 841 699 854 q 751 809 739 828 q 772 766 764 790 q 780 711 780 743 q 772 642 780 679 l 635 0 l 22 0 l 208 875 q 271 879 214 875 m 702 642 q 709 697 709 673 q 703 740 709 722 q 687 772 697 758 q 662 795 677 786 q 628 811 646 805 q 587 821 610 818 q 470 827 545 827 q 265 817 396 827 l 104 60 l 578 60 l 702 642 z "},"מ":{"ha":814,"x_min":-28,"x_max":743,"o":"m 264 783 l 273 783 q 449 877 339 850 q 545 888 496 888 q 713 811 666 888 q 743 693 743 763 q 732 601 743 651 l 604 0 l 343 0 l 355 60 l 548 60 l 663 601 q 672 674 672 641 q 650 766 672 728 q 532 827 613 827 q 426 814 475 827 q 347 781 377 800 q 263 709 285 741 l 254 696 l 41 0 l -28 0 l 181 682 q 190 720 189 705 q 192 743 191 735 q 193 762 193 750 q 192 779 192 774 q 190 798 192 785 q 188 814 189 811 q 185 832 188 817 q 182 848 182 846 l 177 879 l 251 879 q 264 783 264 820 z "},"ן":{"ha":313,"x_min":-41,"x_max":245,"o":"m 241 875 q 245 810 245 842 q 244 724 245 778 q 230 614 242 671 l 28 -334 l -41 -334 l 161 614 q 177 759 177 694 q 171 875 177 825 l 241 875 z "},"נ":{"ha":600,"x_min":-7,"x_max":543,"o":"m 398 888 q 520 833 486 888 q 543 746 543 797 q 536 688 543 720 l 438 226 q 409 123 428 180 q 377 34 391 67 l 363 0 l -7 0 l 5 60 l 315 60 q 369 226 351 146 l 467 688 q 472 731 472 715 q 471 758 472 748 q 445 808 468 789 q 376 827 422 827 q 266 816 330 827 l 279 878 q 398 888 332 888 z "},"ס":{"ha":819,"x_min":60,"x_max":759,"o":"m 505 888 q 722 783 657 888 q 759 618 759 721 q 739 439 759 541 q 579 98 689 210 q 313 -14 469 -14 q 95 98 157 -14 q 60 249 60 160 q 81 439 60 338 q 289 821 139 711 q 237 819 278 821 q 175 817 196 818 l 188 879 q 505 888 374 888 m 628 785 q 572 816 606 804 q 498 827 537 827 q 379 825 426 827 l 363 823 q 233 667 283 760 q 154 439 182 575 q 132 267 132 336 q 164 121 132 174 q 226 67 185 87 q 326 47 267 47 q 434 67 385 47 q 518 121 483 87 q 583 206 554 155 q 665 439 634 296 q 686 614 686 539 q 628 785 686 733 z "},"ע":{"ha":787,"x_min":-59,"x_max":846,"o":"m 846 875 l 728 498 q 521 174 670 313 q 351 58 448 105 q 137 -6 254 11 q -59 -33 20 -22 l -47 26 l 152 55 q 239 75 193 61 l 199 875 l 266 875 l 284 479 l 296 95 q 523 253 424 148 q 667 498 623 357 l 784 875 l 846 875 z "},"ף":{"ha":829,"x_min":94,"x_max":740,"o":"m 292 299 q 130 378 184 299 q 94 505 94 431 q 103 583 94 541 q 159 716 119 656 q 254 812 200 776 q 486 888 364 888 q 705 778 642 888 q 740 627 740 716 q 718 437 740 538 l 554 -334 l 485 -334 l 649 437 q 669 601 669 536 q 653 717 669 665 q 591 798 637 769 q 481 827 545 827 q 369 811 417 827 q 287 770 321 795 q 227 712 253 745 q 155 511 155 623 q 176 425 155 459 q 308 354 210 368 l 317 353 l 295 299 l 292 299 z "},"פ":{"ha":807,"x_min":85,"x_max":748,"o":"m 300 299 q 138 378 192 299 q 102 505 102 431 q 111 583 102 541 q 168 716 127 656 q 262 812 208 776 q 494 888 372 888 q 712 778 650 888 q 748 616 748 715 q 726 437 748 538 q 568 97 677 208 q 302 -14 458 -14 q 110 -3 185 -14 l 85 0 l 98 60 q 315 47 207 47 q 423 67 374 47 q 508 120 472 87 q 572 204 543 154 q 619 311 600 255 q 653 437 638 368 q 675 607 675 538 q 642 754 675 702 q 580 808 621 788 q 482 827 539 827 q 377 811 425 827 q 295 770 328 795 q 235 712 261 745 q 163 517 163 625 q 190 417 163 459 q 315 353 229 353 l 325 353 l 303 299 l 300 299 z "},"ץ":{"ha":609,"x_min":31,"x_max":647,"o":"m 647 875 l 591 611 q 498 418 566 488 q 433 367 473 391 q 343 332 393 344 l 235 304 l 100 -334 l 31 -334 l 180 373 l 104 875 l 174 875 l 249 369 l 357 397 q 460 470 415 413 q 523 611 505 526 l 578 875 l 647 875 z "},"צ":{"ha":728,"x_min":-37,"x_max":755,"o":"m 755 875 l 703 703 q 603 500 669 596 q 442 334 536 404 l 574 43 l 565 0 l -37 0 l -24 60 l 496 60 l 343 393 l 151 875 l 224 875 l 393 441 l 419 385 q 641 703 581 510 l 694 875 l 755 875 z "},"ק":{"ha":796,"x_min":-38,"x_max":835,"o":"m 823 815 l 618 402 q 590 346 610 387 q 558 282 570 306 q 528 219 547 258 q 498 154 510 180 q 473 98 486 127 q 442 12 447 37 l 439 0 l 372 0 l 374 12 q 537 379 389 80 q 549 402 545 395 l 753 815 l 205 815 l 218 875 l 835 875 l 823 815 m 31 -334 l -38 -334 l 142 515 l 212 515 l 31 -334 z "},"ר":{"ha":673,"x_min":121,"x_max":619,"o":"m 134 882 q 313 888 249 888 q 406 886 376 888 q 464 879 435 884 q 515 864 492 873 q 558 841 538 854 q 591 809 578 828 q 611 766 604 790 q 619 711 619 743 q 611 642 619 679 l 475 0 l 406 0 l 542 642 q 549 697 549 673 q 543 740 549 722 q 527 772 536 758 q 501 795 517 786 q 467 811 485 805 q 426 821 450 818 q 335 827 384 827 q 151 822 255 827 l 121 820 l 134 882 z "},"ש":{"ha":928,"x_min":30,"x_max":984,"o":"m 282 0 l 30 0 l 142 875 l 206 875 l 138 347 q 242 380 202 363 q 320 423 282 397 q 386 487 357 450 q 488 703 445 565 l 541 875 l 603 875 l 549 703 q 485 538 519 605 q 402 421 451 472 q 289 339 354 370 q 131 289 224 307 l 102 59 l 294 59 q 503 116 399 59 q 687 274 607 174 q 805 498 767 375 l 922 875 l 984 875 l 867 498 q 713 220 818 342 q 448 28 595 81 q 282 0 367 0 z "},"ת":{"ha":836,"x_min":-76,"x_max":770,"o":"m 742 809 q 770 711 770 767 q 762 642 770 679 l 626 0 l 557 0 l 693 642 q 700 697 700 673 q 694 740 700 722 q 678 772 688 758 q 652 795 668 786 q 618 811 636 805 q 578 821 601 818 q 474 827 535 827 q 323 823 414 827 l 193 209 q -32 0 149 0 q -76 6 -47 0 l -64 63 q -19 61 -45 61 q 71 97 33 61 q 123 209 108 134 l 254 819 l 153 812 l 166 875 q 487 888 367 888 q 664 865 608 888 q 742 809 720 842 z "},"׳":{"ha":201,"x_min":54,"x_max":291,"o":"m 288 875 l 291 860 q 211 699 260 785 q 104 535 162 613 l 54 535 q 141 697 100 609 q 212 875 182 785 l 288 875 z "},"״":{"ha":428,"x_min":57,"x_max":521,"o":"m 292 875 l 294 860 q 214 699 263 785 q 107 535 165 613 l 57 535 q 144 697 103 609 q 215 875 185 785 l 292 875 m 518 875 l 521 860 q 441 699 490 785 q 334 535 392 613 l 283 535 q 371 697 330 609 q 441 875 412 785 l 518 875 z "},"–":{"ha":667,"x_min":45,"x_max":604,"o":"m 57 401 l 604 401 l 593 340 l 45 340 l 57 401 z "},"—":{"ha":1333,"x_min":46,"x_max":1271,"o":"m 58 401 l 1271 401 l 1260 340 l 46 340 l 58 401 z "},"‘":{"ha":203,"x_min":87,"x_max":325,"o":"m 325 991 q 167 652 229 838 l 90 652 l 87 667 q 165 822 114 733 q 275 991 217 911 l 325 991 z "},"’":{"ha":203,"x_min":87,"x_max":325,"o":"m 322 991 l 325 977 q 245 816 294 902 q 138 652 196 730 l 87 652 q 175 814 134 726 q 245 991 216 902 l 322 991 z "},"‚":{"ha":306,"x_min":-68,"x_max":170,"o":"m 167 161 l 170 146 q 91 -11 141 78 q -18 -179 41 -99 l -68 -179 q 21 -11 -21 -104 q 90 161 64 82 l 167 161 z "},"“":{"ha":428,"x_min":87,"x_max":551,"o":"m 325 991 q 167 652 229 838 l 90 652 l 87 667 q 165 822 114 733 q 275 991 217 911 l 325 991 m 551 991 q 393 652 456 838 l 317 652 l 314 667 q 395 829 345 739 q 501 991 446 918 l 551 991 z "},"”":{"ha":428,"x_min":87,"x_max":551,"o":"m 322 991 l 325 977 q 245 816 294 902 q 138 652 196 730 l 87 652 q 175 814 134 726 q 245 991 216 902 l 322 991 m 549 991 l 551 977 q 471 816 520 902 q 364 652 422 730 l 314 652 q 401 814 360 726 q 472 991 442 902 l 549 991 z "},"„":{"ha":526,"x_min":-81,"x_max":383,"o":"m 154 161 l 157 146 q 77 -15 127 74 q -31 -179 26 -103 l -81 -179 q 11 -6 -31 -99 q 78 161 54 86 l 154 161 m 380 161 l 383 146 q 303 -15 353 74 q 196 -179 253 -103 l 146 -179 q 233 -16 191 -106 q 304 161 275 75 l 380 161 z "},"†":{"ha":682,"x_min":122,"x_max":654,"o":"m 397 729 l 261 0 l 182 0 l 354 729 l 122 715 l 139 791 l 364 772 l 406 1055 l 485 1055 l 407 772 l 654 791 l 637 715 l 397 729 z "},"‡":{"ha":682,"x_min":24,"x_max":654,"o":"m 555 329 l 539 253 l 300 269 l 261 0 l 182 0 l 257 269 l 24 253 l 40 329 l 267 313 l 301 533 l 355 732 l 122 715 l 139 791 l 364 775 l 406 1055 l 485 1055 l 407 775 l 654 791 l 637 715 l 399 732 l 367 533 l 310 313 l 555 329 z "},"•":{"ha":538,"x_min":168,"x_max":433,"o":"m 168 463 q 211 607 168 555 q 328 659 254 659 q 433 551 433 659 q 389 411 433 467 q 269 355 344 355 q 168 463 168 355 z "},"…":{"ha":1010,"x_min":47,"x_max":835,"o":"m 47 37 q 64 97 47 75 q 111 119 81 119 q 155 71 155 119 q 138 11 155 34 q 93 -12 121 -12 q 47 37 47 -12 m 386 37 q 403 97 386 75 q 450 119 420 119 q 494 71 494 119 q 477 11 494 34 q 432 -12 460 -12 q 386 37 386 -12 m 726 37 q 743 97 726 75 q 790 119 760 119 q 835 71 835 119 q 818 11 835 34 q 772 -12 801 -12 q 726 37 726 -12 z "},"‰":{"ha":1529,"x_min":98,"x_max":1504,"o":"m 515 812 q 481 591 515 694 q 390 435 448 488 q 256 382 332 382 q 139 433 180 382 q 98 588 98 485 q 133 794 98 692 q 225 951 168 897 q 358 1004 283 1004 q 515 812 515 1004 m 216 0 l 144 0 l 914 991 l 989 991 l 216 0 m 457 796 q 457 839 457 796 q 432 918 457 882 q 355 954 408 954 q 258 906 302 954 q 185 770 213 859 q 157 596 157 681 q 184 472 157 512 q 264 432 212 432 q 362 481 317 432 q 432 621 406 531 q 457 796 457 710 m 1031 415 q 997 194 1031 297 q 905 38 963 91 q 771 -16 847 -16 q 654 36 695 -16 q 614 191 614 87 q 648 397 614 294 q 741 553 683 500 q 876 607 799 607 q 1031 415 1031 607 m 1504 415 q 1470 194 1504 297 q 1378 38 1436 91 q 1244 -16 1320 -16 q 1128 36 1168 -16 q 1088 191 1088 87 q 1122 397 1088 294 q 1215 553 1157 500 q 1351 607 1273 607 q 1466 559 1428 607 q 1504 415 1504 511 m 972 410 q 948 520 972 484 q 870 557 923 557 q 772 508 818 557 q 699 371 726 458 q 672 199 672 283 q 700 75 672 115 q 777 35 727 35 q 919 148 865 35 q 972 410 972 261 m 1446 399 q 1446 442 1446 399 q 1421 521 1446 486 q 1343 557 1396 557 q 1245 508 1291 557 q 1173 373 1200 460 q 1146 200 1146 286 q 1173 74 1146 114 q 1253 35 1200 35 q 1351 84 1306 35 q 1420 223 1395 134 q 1446 399 1446 313 z "},"‹":{"ha":364,"x_min":58,"x_max":345,"o":"m 345 599 l 129 371 l 273 110 l 231 83 l 58 367 l 60 385 l 306 632 l 345 599 z "},"›":{"ha":364,"x_min":25,"x_max":311,"o":"m 25 117 l 240 345 l 96 606 l 139 632 l 311 349 l 310 330 l 64 83 l 25 117 z "},"⁄":{"ha":186,"x_min":-314,"x_max":496,"o":"m -241 0 l -314 0 l 422 991 l 496 991 l -241 0 z "},"₪":{"ha":1083,"x_min":22,"x_max":1061,"o":"m 490 875 q 623 865 580 875 q 688 842 666 854 q 750 768 736 817 q 758 709 758 744 q 747 630 758 675 l 652 179 l 583 179 l 678 630 q 686 693 686 666 q 681 739 686 720 q 662 771 675 758 q 632 794 648 785 q 590 807 616 802 q 477 815 547 815 l 264 815 l 92 0 l 22 0 l 208 875 l 490 875 m 458 60 q 745 157 631 60 q 899 441 859 254 l 991 875 l 1061 875 l 968 441 q 785 116 924 232 q 446 0 645 0 l 273 0 l 420 696 l 490 696 l 355 60 l 458 60 z "},"€":{"ha":765,"x_min":54,"x_max":869,"o":"m 672 942 q 448 860 546 942 q 294 625 350 779 l 604 625 l 590 570 l 278 570 q 252 422 258 504 l 551 422 l 538 367 l 250 367 q 310 126 250 203 q 490 49 370 49 q 661 87 568 49 l 661 24 q 478 -14 574 -14 q 257 81 336 -14 q 179 349 179 176 l 179 367 l 54 367 l 65 422 l 182 422 q 205 570 184 490 l 90 570 l 103 625 l 221 625 q 404 908 285 810 q 675 1006 524 1006 q 869 945 787 1006 l 833 889 q 672 942 764 942 z "},"™":{"ha":1040,"x_min":118,"x_max":994,"o":"m 265 503 l 265 939 l 118 939 l 118 991 l 472 991 l 472 939 l 323 939 l 323 503 l 265 503 m 579 503 l 524 503 l 524 991 l 608 991 l 758 581 l 909 991 l 994 991 l 994 503 l 936 503 l 936 772 l 939 913 l 935 913 l 781 503 l 730 503 l 581 916 l 576 916 l 579 779 l 579 503 z "},"∞":{"ha":972,"x_min":83,"x_max":889,"o":"m 282 701 q 394 665 345 701 q 486 546 443 628 q 578 664 529 627 q 690 701 627 701 q 833 641 777 701 q 889 490 889 581 q 832 339 889 399 q 690 279 777 279 q 578 316 627 279 q 486 435 529 353 q 393 316 442 353 q 282 279 344 279 q 139 339 195 279 q 83 490 83 399 q 140 642 83 581 q 282 701 197 701 m 452 490 q 372 603 411 569 q 278 636 332 636 q 187 596 223 636 q 151 490 151 556 q 187 385 151 425 q 278 345 223 345 q 371 377 333 345 q 452 490 410 410 m 821 490 q 821 523 821 490 q 785 596 821 556 q 693 636 749 636 q 598 601 637 636 q 521 490 559 566 q 598 379 559 414 q 693 345 637 345 q 785 385 749 345 q 821 490 821 425 z "},"≠":{"ha":793,"x_min":75,"x_max":718,"o":"m 75 323 l 75 379 l 313 379 l 416 600 l 75 600 l 75 656 l 443 656 l 541 863 l 590 836 l 505 656 l 718 656 l 718 600 l 479 600 l 375 379 l 718 379 l 718 323 l 349 323 l 254 121 l 203 146 l 286 323 l 75 323 z "},"≤":{"ha":793,"x_min":93,"x_max":726,"o":"m 93 458 l 93 509 l 713 828 l 713 758 l 170 488 l 713 250 l 713 178 l 93 458 m 114 61 l 726 61 l 726 -7 l 114 -7 l 114 61 z "},"≥":{"ha":793,"x_min":114,"x_max":736,"o":"m 659 488 l 115 758 l 115 828 l 736 509 l 736 458 l 115 178 l 115 250 l 659 488 m 114 61 l 726 61 l 726 -7 l 114 -7 l 114 61 z "},"◊":{"ha":806,"x_min":81,"x_max":725,"o":"m 386 1000 l 419 1000 l 725 498 l 419 0 l 386 0 l 81 498 l 386 1000 m 403 920 l 149 498 l 403 82 l 657 498 l 403 920 z "},"ﬁ":{"ha":714,"x_min":52,"x_max":920,"o":"m 233 -334 q 164 -321 200 -334 l 164 -260 q 232 -271 199 -271 q 322 -235 291 -271 q 374 -109 354 -199 l 541 682 l 401 682 l 411 728 l 550 737 l 574 846 q 653 1011 597 960 q 807 1063 708 1063 q 920 1042 857 1063 l 903 987 q 803 1006 844 1006 q 699 969 737 1006 q 642 848 660 932 l 618 737 l 786 737 l 775 682 l 607 682 l 436 -125 q 366 -284 414 -234 q 233 -334 317 -334 m 237 926 q 252 986 237 964 q 293 1008 267 1008 q 332 960 332 1008 q 317 899 332 922 q 278 876 302 876 q 237 926 237 876 m 52 0 l 208 737 l 273 737 l 118 0 l 52 0 z "},"ﬂ":{"ha":714,"x_min":52,"x_max":920,"o":"m 233 -334 q 164 -321 200 -334 l 164 -260 q 232 -271 199 -271 q 322 -235 291 -271 q 374 -109 354 -199 l 541 682 l 401 682 l 411 728 l 550 737 l 574 846 q 653 1011 597 960 q 807 1063 708 1063 q 920 1042 857 1063 l 903 987 q 803 1006 844 1006 q 699 969 737 1006 q 642 848 660 932 l 618 737 l 786 737 l 775 682 l 607 682 l 436 -125 q 366 -284 414 -234 q 233 -334 317 -334 m 278 1055 l 342 1055 l 115 0 l 52 0 l 278 1055 z "},"שׁ":{"ha":928,"x_min":30,"x_max":1045,"o":"m 1010 1050 q 1045 1017 1045 1050 q 1043 998 1045 1008 q 989 948 1031 948 q 956 979 956 948 q 958 998 956 987 q 1010 1050 969 1050 m 282 0 l 30 0 l 142 875 l 206 875 l 138 347 q 242 380 202 363 q 320 423 282 397 q 386 487 357 450 q 488 703 445 565 l 541 875 l 603 875 l 549 703 q 485 538 519 605 q 402 421 451 472 q 289 339 354 370 q 131 289 224 307 l 102 59 l 294 59 q 503 116 399 59 q 687 274 607 174 q 805 498 767 375 l 922 875 l 984 875 l 867 498 q 713 220 818 342 q 448 28 595 81 q 282 0 367 0 z "},"שׂ":{"ha":928,"x_min":30,"x_max":984,"o":"m 198 1050 q 233 1017 233 1050 q 231 998 233 1008 q 176 948 219 948 q 143 979 143 948 q 146 998 143 987 q 198 1050 157 1050 m 282 0 l 30 0 l 142 875 l 206 875 l 138 347 q 242 380 202 363 q 320 423 282 397 q 386 487 357 450 q 488 703 445 565 l 541 875 l 603 875 l 549 703 q 485 538 519 605 q 402 421 451 472 q 289 339 354 370 q 131 289 224 307 l 102 59 l 294 59 q 503 116 399 59 q 687 274 607 174 q 805 498 767 375 l 922 875 l 984 875 l 867 498 q 713 220 818 342 q 448 28 595 81 q 282 0 367 0 z "},"שּׁ":{"ha":928,"x_min":30,"x_max":1045,"o":"m 1010 1050 q 1045 1017 1045 1050 q 1043 998 1045 1008 q 989 948 1031 948 q 956 979 956 948 q 958 998 956 987 q 1010 1050 969 1050 m 282 0 l 30 0 l 142 875 l 206 875 l 138 347 q 242 380 202 363 q 320 423 282 397 q 386 487 357 450 q 488 703 445 565 l 541 875 l 603 875 l 549 703 q 485 538 519 605 q 402 421 451 472 q 289 339 354 370 q 131 289 224 307 l 102 59 l 294 59 q 503 116 399 59 q 687 274 607 174 q 805 498 767 375 l 922 875 l 984 875 l 867 498 q 713 220 818 342 q 448 28 595 81 q 282 0 367 0 m 498 357 q 532 323 532 357 q 530 305 532 315 q 476 255 519 255 q 443 286 443 255 q 446 305 443 294 q 498 357 456 357 z "},"שּׂ":{"ha":928,"x_min":30,"x_max":984,"o":"m 198 1050 q 233 1017 233 1050 q 231 998 233 1008 q 176 948 219 948 q 143 979 143 948 q 146 998 143 987 q 198 1050 157 1050 m 282 0 l 30 0 l 142 875 l 206 875 l 138 347 q 242 380 202 363 q 320 423 282 397 q 386 487 357 450 q 488 703 445 565 l 541 875 l 603 875 l 549 703 q 485 538 519 605 q 402 421 451 472 q 289 339 354 370 q 131 289 224 307 l 102 59 l 294 59 q 503 116 399 59 q 687 274 607 174 q 805 498 767 375 l 922 875 l 984 875 l 867 498 q 713 220 818 342 q 448 28 595 81 q 282 0 367 0 m 498 357 q 532 323 532 357 q 530 305 532 315 q 476 255 519 255 q 443 286 443 255 q 446 305 443 294 q 498 357 456 357 z "},"אַ":{"ha":774,"x_min":-17,"x_max":780,"o":"m 780 875 l 712 555 q 696 490 705 519 q 669 426 687 461 q 629 363 652 390 q 571 314 607 337 q 492 280 536 291 l 602 0 l 527 0 l 315 542 q 251 525 284 542 q 165 444 197 497 q 114 304 133 391 l 50 0 l -17 0 l 47 304 q 65 373 56 342 q 94 445 75 405 q 138 513 113 484 q 203 567 163 543 q 292 600 243 591 l 184 875 l 258 875 l 469 337 q 512 351 492 341 q 597 424 568 378 q 646 555 627 469 l 713 875 l 780 875 m 383 -146 l 141 -146 l 152 -98 l 394 -98 l 383 -146 z "},"אָ":{"ha":774,"x_min":-17,"x_max":780,"o":"m 780 875 l 712 555 q 696 490 705 519 q 669 426 687 461 q 629 363 652 390 q 571 314 607 337 q 492 280 536 291 l 602 0 l 527 0 l 315 542 q 251 525 284 542 q 165 444 197 497 q 114 304 133 391 l 50 0 l -17 0 l 47 304 q 65 373 56 342 q 94 445 75 405 q 138 513 113 484 q 203 567 163 543 q 292 600 243 591 l 184 875 l 258 875 l 469 337 q 512 351 492 341 q 597 424 568 378 q 646 555 627 469 l 713 875 l 780 875 m 384 -146 l 287 -146 l 258 -283 l 210 -283 l 239 -146 l 142 -146 l 152 -98 l 394 -98 l 384 -146 z "},"אּ":{"ha":774,"x_min":-17,"x_max":780,"o":"m 780 875 l 712 555 q 696 490 705 519 q 669 426 687 461 q 629 363 652 390 q 571 314 607 337 q 492 280 536 291 l 602 0 l 527 0 l 315 542 q 251 525 284 542 q 165 444 197 497 q 114 304 133 391 l 50 0 l -17 0 l 47 304 q 65 373 56 342 q 94 445 75 405 q 138 513 113 484 q 203 567 163 543 q 292 600 243 591 l 184 875 l 258 875 l 469 337 q 512 351 492 341 q 597 424 568 378 q 646 555 627 469 l 713 875 l 780 875 m 264 304 q 298 271 298 304 q 296 252 298 262 q 242 202 285 202 q 209 233 209 202 q 212 252 209 241 q 264 304 222 304 z "},"בּ":{"ha":689,"x_min":-45,"x_max":610,"o":"m 142 882 q 308 888 249 888 q 396 886 367 888 q 454 879 425 884 q 506 864 483 873 q 548 841 528 854 q 581 809 568 828 q 602 766 594 790 q 610 711 610 743 q 602 642 610 679 l 477 60 l 580 60 l 568 0 l -45 0 l -33 60 l 408 60 l 532 642 q 539 697 539 673 q 533 740 539 722 q 517 772 527 758 q 491 795 507 786 q 458 811 475 805 q 416 821 440 818 q 314 827 374 827 q 129 820 253 827 l 142 882 m 262 503 q 297 469 297 503 q 295 451 297 461 q 241 401 283 401 q 208 432 208 401 q 210 451 208 440 q 262 503 221 503 z "},"גּ":{"ha":522,"x_min":-39,"x_max":495,"o":"m 364 888 q 479 834 450 888 q 495 765 495 803 q 487 688 495 726 l 340 0 l 281 0 l 305 144 l 300 144 q 224 62 254 87 q 48 -3 147 -3 q -39 5 9 -3 l -13 68 q 68 60 22 60 q 239 138 161 60 q 345 347 317 216 l 418 688 q 426 760 426 730 q 407 808 426 789 q 346 827 387 827 q 243 816 305 827 l 256 878 q 364 888 310 888 m 201 503 q 235 469 235 503 q 233 451 235 461 q 179 401 222 401 q 146 432 146 401 q 149 451 146 440 q 201 503 159 503 z "},"דּ":{"ha":671,"x_min":111,"x_max":736,"o":"m 736 875 l 726 823 q 668 800 692 812 q 616 766 644 787 q 539 629 559 722 l 406 0 l 336 0 l 470 629 q 496 703 479 669 q 531 757 513 737 q 594 810 568 797 l 605 815 l 111 815 l 123 875 l 736 875 m 261 503 q 296 469 296 503 q 294 451 296 461 q 239 401 282 401 q 206 432 206 401 q 209 451 206 440 q 261 503 220 503 z "},"הּ":{"ha":852,"x_min":29,"x_max":787,"o":"m 215 875 q 480 888 416 888 q 573 886 544 888 q 631 879 602 884 q 683 864 660 873 q 725 841 705 854 q 758 809 745 828 q 779 766 771 790 q 787 711 787 743 q 779 642 787 679 l 642 0 l 572 0 l 709 642 q 715 697 715 673 q 710 740 715 722 q 694 772 704 758 q 668 795 684 786 q 635 811 652 805 q 594 821 617 818 q 477 827 551 827 q 201 812 403 827 l 215 875 m 98 0 l 29 0 l 146 551 l 216 551 l 98 0 m 437 503 q 471 469 471 503 q 469 451 471 461 q 415 401 458 401 q 382 432 382 401 q 385 451 382 440 q 437 503 395 503 z "},"וּ":{"ha":316,"x_min":-43,"x_max":286,"o":"m 100 0 l 31 0 l 216 875 l 286 875 l 100 0 m 12 503 q 47 469 47 503 q 45 451 47 461 q -9 401 33 401 q -43 432 -43 401 q -40 451 -43 440 q 12 503 -29 503 z "},"זּ":{"ha":316,"x_min":-43,"x_max":388,"o":"m 388 875 l 377 823 q 282 717 329 790 q 216 553 236 644 l 99 0 l 30 0 l 147 553 q 180 654 159 606 q 227 735 202 703 q 301 815 271 792 l 105 815 l 118 875 l 388 875 m 12 503 q 47 469 47 503 q 45 451 47 461 q -9 401 33 401 q -43 432 -43 401 q -40 451 -43 440 q 12 503 -29 503 z "},"טּ":{"ha":853,"x_min":94,"x_max":794,"o":"m 540 888 q 758 778 696 888 q 794 616 794 715 q 772 437 794 538 q 614 97 724 208 q 348 -14 505 -14 q 129 97 192 -14 q 94 259 94 159 q 115 437 94 337 l 208 875 l 278 875 l 185 437 q 163 269 163 337 q 198 121 163 174 q 261 67 220 87 q 361 47 302 47 q 469 67 420 47 q 554 120 518 87 q 618 204 589 154 q 665 311 646 255 q 699 437 684 368 q 721 607 721 538 q 688 754 721 702 q 626 808 667 788 q 526 827 585 827 q 463 821 495 827 l 476 883 q 540 888 509 888 m 449 503 q 484 469 484 503 q 481 451 484 461 q 427 401 470 401 q 394 432 394 401 q 397 451 394 440 q 449 503 408 503 z "},"יּ":{"ha":300,"x_min":4,"x_max":281,"o":"m 180 404 l 101 327 l 95 327 l 212 875 l 281 875 l 180 404 m 59 661 q 94 627 94 661 q 92 609 94 619 q 37 559 80 559 q 4 590 4 559 q 7 609 4 598 q 59 661 18 661 z "},"ךּ":{"ha":656,"x_min":129,"x_max":601,"o":"m 531 605 q 319 827 531 827 q 201 813 254 827 q 159 800 184 808 q 129 791 134 792 l 142 855 q 227 878 172 867 q 339 888 281 888 q 446 871 397 888 q 525 826 495 855 q 598 675 588 766 q 601 622 601 645 q 587 486 601 553 l 412 -334 l 342 -334 l 516 486 q 531 605 531 551 m 292 503 q 327 469 327 503 q 325 451 327 461 q 271 401 313 401 q 237 432 237 401 q 240 451 237 440 q 292 503 251 503 z "},"כּ":{"ha":652,"x_min":-42,"x_max":596,"o":"m 222 878 q 249 883 222 878 q 340 888 275 888 q 459 864 404 888 q 543 802 514 840 q 584 714 572 764 q 596 616 596 664 q 581 486 596 558 l 555 363 q 488 186 534 265 q 436 114 469 152 q 364 48 403 75 q 269 4 326 22 q 156 -14 213 -14 q 51 -7 98 -14 q -19 5 3 -1 l -42 11 l -26 84 q -4 74 -19 80 q 59 58 10 68 q 166 47 108 47 q 279 73 224 47 q 367 134 333 98 q 428 217 401 170 q 485 363 468 288 l 511 486 q 526 605 526 551 q 315 827 526 827 q 155 800 238 827 q 124 791 128 792 l 138 855 q 222 878 168 868 m 255 503 q 290 469 290 503 q 288 451 290 461 q 233 401 276 401 q 200 432 200 401 q 203 451 200 440 q 255 503 214 503 z "},"לּ":{"ha":631,"x_min":114,"x_max":673,"o":"m 673 879 l 656 802 l 429 344 l 294 0 l 223 0 l 355 336 l 594 814 l 114 814 l 168 1064 l 237 1064 l 197 879 l 673 879 m 210 401 q 177 432 177 401 q 180 451 177 440 q 232 503 191 503 q 267 469 267 503 q 264 451 267 461 q 210 401 253 401 z "},"מּ":{"ha":814,"x_min":-28,"x_max":743,"o":"m 264 783 l 273 783 q 449 877 339 850 q 545 888 496 888 q 713 811 666 888 q 743 693 743 763 q 732 601 743 651 l 604 0 l 343 0 l 355 60 l 548 60 l 663 601 q 672 674 672 641 q 650 766 672 728 q 532 827 613 827 q 426 814 475 827 q 347 781 377 800 q 263 709 285 741 l 254 696 l 41 0 l -28 0 l 181 682 q 190 720 189 705 q 192 743 191 735 q 193 762 193 750 q 192 779 192 774 q 190 798 192 785 q 188 814 189 811 q 185 832 188 817 q 182 848 182 846 l 177 879 l 251 879 q 264 783 264 820 m 418 503 q 452 469 452 503 q 450 451 452 461 q 396 401 439 401 q 363 432 363 401 q 366 451 363 440 q 418 503 376 503 z "},"נּ":{"ha":600,"x_min":-7,"x_max":543,"o":"m 398 888 q 520 833 486 888 q 543 746 543 797 q 536 688 543 720 l 438 226 q 409 123 428 180 q 377 34 391 67 l 363 0 l -7 0 l 5 60 l 315 60 q 369 226 351 146 l 467 688 q 472 731 472 715 q 471 758 472 748 q 445 808 468 789 q 376 827 422 827 q 266 816 330 827 l 279 878 q 398 888 332 888 m 277 503 q 311 469 311 503 q 309 451 311 461 q 255 401 298 401 q 222 432 222 401 q 224 451 222 440 q 277 503 235 503 z "},"סּ":{"ha":819,"x_min":60,"x_max":759,"o":"m 505 888 q 722 783 657 888 q 759 618 759 721 q 739 439 759 541 q 579 98 689 210 q 313 -14 469 -14 q 95 98 157 -14 q 60 249 60 160 q 81 439 60 338 q 289 821 139 711 q 237 819 278 821 q 175 817 196 818 l 188 879 q 505 888 374 888 m 628 785 q 572 816 606 804 q 498 827 537 827 q 379 825 426 827 l 363 823 q 233 667 283 760 q 154 439 182 575 q 132 267 132 336 q 164 121 132 174 q 226 67 185 87 q 326 47 267 47 q 434 67 385 47 q 518 121 483 87 q 583 206 554 155 q 665 439 634 296 q 686 614 686 539 q 628 785 686 733 m 422 503 q 456 469 456 503 q 454 451 456 461 q 400 401 443 401 q 367 432 367 401 q 370 451 367 440 q 422 503 380 503 z "},"ףּ":{"ha":829,"x_min":94,"x_max":740,"o":"m 292 299 q 130 378 184 299 q 94 505 94 431 q 103 583 94 541 q 159 716 119 656 q 254 812 200 776 q 486 888 364 888 q 705 778 642 888 q 740 627 740 716 q 718 437 740 538 l 554 -334 l 485 -334 l 649 437 q 669 601 669 536 q 653 717 669 665 q 591 798 637 769 q 481 827 545 827 q 369 811 417 827 q 287 770 321 795 q 227 712 253 745 q 155 511 155 623 q 176 425 155 459 q 308 354 210 368 l 317 353 l 295 299 l 292 299 m 430 631 q 465 598 465 631 q 463 580 465 590 q 408 530 451 530 q 375 561 375 530 q 378 580 375 569 q 430 631 389 631 z "},"פּ":{"ha":807,"x_min":85,"x_max":748,"o":"m 300 299 q 138 378 192 299 q 102 505 102 431 q 111 583 102 541 q 168 716 127 656 q 262 812 208 776 q 494 888 372 888 q 712 778 650 888 q 748 616 748 715 q 726 437 748 538 q 568 97 677 208 q 302 -14 458 -14 q 110 -3 185 -14 l 85 0 l 98 60 q 315 47 207 47 q 423 67 374 47 q 508 120 472 87 q 572 204 543 154 q 619 311 600 255 q 653 437 638 368 q 675 607 675 538 q 642 754 675 702 q 580 808 621 788 q 482 827 539 827 q 377 811 425 827 q 295 770 328 795 q 235 712 261 745 q 163 517 163 625 q 190 417 163 459 q 315 353 229 353 l 325 353 l 303 299 l 300 299 m 442 625 q 477 592 477 625 q 475 574 477 584 q 420 524 463 524 q 387 555 387 524 q 390 574 387 563 q 442 625 401 625 z "},"צּ":{"ha":728,"x_min":-37,"x_max":755,"o":"m 755 875 l 703 703 q 603 500 669 596 q 442 334 536 404 l 574 43 l 565 0 l -37 0 l -24 60 l 496 60 l 343 393 l 151 875 l 224 875 l 393 441 l 419 385 q 641 703 581 510 l 694 875 l 755 875 m 165 387 q 199 354 199 387 q 197 336 199 346 q 143 286 186 286 q 110 317 110 286 q 113 336 110 325 q 165 387 123 387 z "},"קּ":{"ha":796,"x_min":-38,"x_max":835,"o":"m 823 815 l 618 402 q 590 346 610 387 q 558 282 570 306 q 528 219 547 258 q 498 154 510 180 q 473 98 486 127 q 442 12 447 37 l 439 0 l 372 0 l 374 12 q 537 379 389 80 q 549 402 545 395 l 753 815 l 205 815 l 218 875 l 835 875 l 823 815 m 31 -334 l -38 -334 l 142 515 l 212 515 l 31 -334 m 399 503 q 434 469 434 503 q 432 451 434 461 q 378 401 420 401 q 345 432 345 401 q 347 451 345 440 q 399 503 358 503 z "},"רּ":{"ha":673,"x_min":121,"x_max":619,"o":"m 134 882 q 313 888 249 888 q 406 886 376 888 q 464 879 435 884 q 515 864 492 873 q 558 841 538 854 q 591 809 578 828 q 611 766 604 790 q 619 711 619 743 q 611 642 619 679 l 475 0 l 406 0 l 542 642 q 549 697 549 673 q 543 740 549 722 q 527 772 536 758 q 501 795 517 786 q 467 811 485 805 q 426 821 450 818 q 335 827 384 827 q 151 822 255 827 l 121 820 l 134 882 m 250 503 q 285 469 285 503 q 283 451 285 461 q 229 401 271 401 q 195 432 195 401 q 198 451 195 440 q 250 503 209 503 z "},"שּ":{"ha":928,"x_min":30,"x_max":984,"o":"m 282 0 l 30 0 l 142 875 l 206 875 l 138 347 q 242 380 202 363 q 320 423 282 397 q 386 487 357 450 q 488 703 445 565 l 541 875 l 603 875 l 549 703 q 485 538 519 605 q 402 421 451 472 q 289 339 354 370 q 131 289 224 307 l 102 59 l 294 59 q 503 116 399 59 q 687 274 607 174 q 805 498 767 375 l 922 875 l 984 875 l 867 498 q 713 220 818 342 q 448 28 595 81 q 282 0 367 0 m 498 357 q 532 323 532 357 q 530 305 532 315 q 476 255 519 255 q 443 286 443 255 q 446 305 443 294 q 498 357 456 357 z "},"תּ":{"ha":836,"x_min":-76,"x_max":770,"o":"m 742 809 q 770 711 770 767 q 762 642 770 679 l 626 0 l 557 0 l 693 642 q 700 697 700 673 q 694 740 700 722 q 678 772 688 758 q 652 795 668 786 q 618 811 636 805 q 578 821 601 818 q 474 827 535 827 q 323 823 414 827 l 193 209 q -32 0 149 0 q -76 6 -47 0 l -64 63 q -19 61 -45 61 q 71 97 33 61 q 123 209 108 134 l 254 819 l 153 812 l 166 875 q 487 888 367 888 q 664 865 608 888 q 742 809 720 842 m 444 503 q 479 469 479 503 q 477 451 479 461 q 422 401 465 401 q 389 432 389 401 q 392 451 389 440 q 444 503 403 503 z "},"וֹ":{"ha":316,"x_min":31,"x_max":302,"o":"m 267 1050 q 302 1017 302 1050 q 300 998 302 1008 q 245 948 288 948 q 212 979 212 948 q 215 998 212 987 q 267 1050 226 1050 m 100 0 l 31 0 l 216 875 l 286 875 l 100 0 z "}," ":{"ha":361,"x_min":0,"x_max":0,"o":""}}}
